<svg width="86" height="86" viewBox="0 0 86 86" fill="none" xmlns="http://www.w3.org/2000/svg">
<rect width="86" height="86" rx="43" fill="#EBFBFE"/>
<path fill-rule="evenodd" clip-rule="evenodd" d="M31.0009 27C31.0009 20.3726 36.3735 15 43.0009 15C49.6283 15 55.0009 20.3726 55.0009 27C55.0009 33.6274 49.6283 39 43.0009 39C36.3735 39 31.0009 33.6274 31.0009 27Z" fill="#0B87AC"/>
<path fill-rule="evenodd" clip-rule="evenodd" d="M21.0042 64.6142C21.2104 52.6415 30.9795 43 43.0009 43C55.0225 43 64.7918 52.642 64.9976 64.6151C65.0112 65.4091 64.5538 66.136 63.832 66.4672C57.4881 69.3781 50.4316 71 43.0017 71C35.5712 71 28.514 69.3778 22.1697 66.4664C21.448 66.1352 20.9905 65.4083 21.0042 64.6142Z" fill="#0B87AC"/>
</svg>
