<svg width="40" height="44" viewBox="0 0 40 44" fill="none" xmlns="http://www.w3.org/2000/svg">
<path d="M26.2344 38.875H3.73438C3.17493 38.875 2.63841 38.6528 2.24282 38.2572C1.84724 37.8616 1.625 37.3251 1.625 36.7656V4.42188C1.625 3.86243 1.84724 3.32591 2.24282 2.93032C2.63841 2.53474 3.17493 2.3125 3.73438 2.3125H22.7188V5.82812C22.7188 6.38757 22.941 6.92409 23.3366 7.31968C23.7322 7.71526 24.2687 7.9375 24.8281 7.9375H28.3438V24.8125H29.75V7.23438C29.75 7.04791 29.6759 6.8691 29.544 6.73727L23.919 1.11227C23.7872 0.980395 23.6083 0.90629 23.4219 0.90625H3.73438C2.80232 0.907366 1.90875 1.27812 1.24969 1.93719C0.59062 2.59625 0.219866 3.48982 0.21875 4.42188V36.7656C0.219866 37.6977 0.59062 38.5912 1.24969 39.2503C1.90875 39.9094 2.80232 40.2801 3.73438 40.2812H26.2344C26.7332 40.2812 27.2262 40.1751 27.6809 39.9698C28.1355 39.7646 28.5412 39.465 28.8711 39.0909L27.8164 38.1606C27.6185 38.3851 27.375 38.5649 27.1023 38.6881C26.8295 38.8113 26.5337 38.875 26.2344 38.875ZM24.125 5.82812V3.30672L27.3495 6.53125H24.8281C24.6416 6.53125 24.4628 6.45717 24.3309 6.32531C24.1991 6.19345 24.125 6.01461 24.125 5.82812Z" fill="url(#paint0_linear_4474_7161)"/>
<path d="M38.893 39.6187L35.9104 36.634C35.6016 36.3281 35.2058 36.1252 34.7773 36.0528C34.3488 35.9804 33.9083 36.0422 33.5162 36.2297L32.3947 35.1089C33.2728 33.9779 33.6868 32.5548 33.5525 31.1293C33.4183 29.7038 32.7458 28.3831 31.672 27.436C30.5981 26.4889 29.2037 25.9866 27.7726 26.0314C26.3415 26.0763 24.9813 26.6648 23.9689 27.6772C22.9564 28.6897 22.3679 30.0499 22.3231 31.481C22.2783 32.9121 22.7805 34.3065 23.7276 35.3803C24.6747 36.4541 25.9955 37.1266 27.421 37.2609C28.8465 37.3952 30.2695 36.9812 31.4005 36.1031L32.5213 37.2239C32.3339 37.6162 32.2722 38.0569 32.3448 38.4856C32.4175 38.9143 32.6208 39.31 32.927 39.6187L35.9104 42.6021C36.3082 42.9863 36.841 43.1989 37.3941 43.1941C37.9472 43.1893 38.4762 42.9675 38.8673 42.5764C39.2584 42.1853 39.4803 41.6562 39.4851 41.1032C39.4899 40.5501 39.2773 40.0166 38.893 39.6187ZM24.9711 34.6462C24.3811 34.0562 23.9793 33.3045 23.8165 32.4862C23.6537 31.6678 23.7372 30.8195 24.0565 30.0486C24.3758 29.2778 24.9165 28.6189 25.6103 28.1553C26.3041 27.6917 27.1197 27.4443 27.9541 27.4443C28.7886 27.4443 29.6042 27.6917 30.298 28.1553C30.9918 28.6189 31.5325 29.2778 31.8518 30.0486C32.1711 30.8195 32.2546 31.6678 32.0918 32.4862C31.929 33.3045 31.5272 34.0562 30.9372 34.6462C30.1454 35.4359 29.0728 35.8794 27.9545 35.8794C26.8362 35.8794 25.7629 35.4359 24.9711 34.6462ZM37.8981 41.6072C37.7662 41.739 37.5874 41.813 37.401 41.813C37.2145 41.813 37.0357 41.739 36.9039 41.6072L33.9212 38.6245C33.7893 38.4927 33.7151 38.3138 33.7151 38.1273C33.715 37.9408 33.789 37.7619 33.9209 37.6299C34.0527 37.498 34.2316 37.4239 34.4181 37.4238C34.6046 37.4237 34.7835 37.4978 34.9154 37.6296L37.8981 40.613C38.03 40.7447 38.1042 40.9235 38.1043 41.1099C38.1044 41.2964 38.0298 41.4752 37.8981 41.6072Z" fill="url(#paint1_linear_4474_7161)"/>
<path d="M29.9531 29.2378L27.6377 31.5532L26.7286 30.644L25.7344 31.6383L27.1406 33.0445C27.2725 33.1763 27.4513 33.2504 27.6377 33.2504C27.8242 33.2504 28.003 33.1763 28.1348 33.0445L30.9473 30.232L29.9531 29.2378Z" fill="url(#paint2_linear_4474_7161)"/>
<path d="M5.84375 26.2188H7.25V27.625H5.84375V26.2188Z" fill="url(#paint3_linear_4474_7161)"/>
<path d="M8.65625 26.2188H22.0156V27.625H8.65625V26.2188Z" fill="url(#paint4_linear_4474_7161)"/>
<path d="M5.84375 29.0312H21.3125V30.4375H5.84375V29.0312ZM5.84375 31.8438H21.3125V33.25H5.84375V31.8438Z" fill="url(#paint5_linear_4474_7161)"/>
<path d="M5.84375 34.6562H22.0156V36.0625H5.84375V34.6562Z" fill="url(#paint6_linear_4474_7161)"/>
<path d="M8.65625 24.1093C8.65625 24.2958 8.73033 24.4747 8.86219 24.6065C8.99405 24.7384 9.17289 24.8125 9.35938 24.8125H20.6094C20.7959 24.8125 20.9747 24.7384 21.1066 24.6065C21.2384 24.4747 21.3125 24.2958 21.3125 24.1093V22C21.3119 20.7862 20.8609 19.6159 20.0469 18.7157C20.3976 18.4836 20.6918 18.1759 20.9079 17.8151C21.124 17.4543 21.2564 17.0496 21.2954 16.6309C21.3344 16.2121 21.2789 15.79 21.1332 15.3955C20.9875 15.001 20.7551 14.6442 20.4533 14.3514C20.6276 13.9172 20.6527 13.4374 20.5245 12.9875C20.3963 12.5375 20.1222 12.1429 19.7452 11.8658C19.5869 11.7616 19.4553 11.6215 19.3611 11.457C19.267 11.2924 19.2128 11.1081 19.2031 10.9187C19.201 10.3194 19.0788 9.72666 18.8438 9.17538C18.6088 8.62409 18.2657 8.12547 17.8348 7.70895C17.4409 7.31822 16.9712 7.01219 16.4547 6.80965C15.9381 6.60712 15.3856 6.51236 14.8311 6.53122C13.7384 6.56918 12.7033 7.03058 11.9446 7.81787C11.1859 8.60516 10.7631 9.65662 10.7656 10.75V10.9363C10.7529 11.1219 10.6973 11.3021 10.6032 11.4626C10.5092 11.6232 10.3792 11.7597 10.2235 11.8616C9.95663 12.0579 9.73944 12.314 9.58938 12.6094C9.43931 12.9047 9.36054 13.2312 9.35938 13.5625C9.3586 13.8328 9.41042 14.1008 9.51195 14.3514C9.2101 14.6442 8.97775 15.001 8.83202 15.3955C8.68629 15.79 8.63088 16.2121 8.66987 16.6309C8.70887 17.0496 8.84127 17.4543 9.05733 17.8151C9.2734 18.1759 9.56763 18.4836 9.91836 18.7157C9.10557 19.6164 8.65585 20.7867 8.65625 22V24.1093ZM19.9062 23.4062H10.0625V22C10.0652 21.1158 10.4016 20.2652 11.0044 19.6184C11.6072 18.9715 12.432 18.5761 13.3138 18.5111L14.4873 19.6846C14.6191 19.8164 14.7979 19.8904 14.9844 19.8904C15.1708 19.8904 15.3496 19.8164 15.4815 19.6846L16.655 18.5111C17.5368 18.5761 18.3615 18.9715 18.9643 19.6184C19.5671 20.2652 19.9035 21.1158 19.9062 22V23.4062ZM14.9844 15.6718C14.4249 15.6718 13.8884 15.4496 13.4928 15.054C13.0972 14.6584 12.875 14.1219 12.875 13.5625V12.8593H13.1162C13.5781 12.8605 14.0357 12.7701 14.4625 12.5933C14.8892 12.4165 15.2767 12.1568 15.6024 11.8293L15.6875 11.7442L16.1846 12.2413C16.4368 12.495 16.7498 12.6799 17.0938 12.7785V13.5625C17.0938 14.1219 16.8715 14.6584 16.4759 15.054C16.0803 15.4496 15.5438 15.6718 14.9844 15.6718ZM14.9844 17.0781C15.2205 17.0783 15.4561 17.0548 15.6875 17.0078V17.4908L14.9844 18.194L14.2812 17.4908V17.0078C14.5127 17.0548 14.7482 17.0783 14.9844 17.0781ZM19.2031 13.5625C19.2056 13.7392 19.1378 13.9096 19.0147 14.0364C18.9394 14.1141 18.883 14.2082 18.85 14.3113C18.817 14.4144 18.8083 14.5238 18.8245 14.6308C18.8407 14.7379 18.8813 14.8397 18.9434 14.9285C19.0054 15.0172 19.0871 15.0904 19.182 15.1424C19.4019 15.2643 19.5851 15.443 19.7125 15.6598C19.8398 15.8766 19.9067 16.1235 19.9062 16.375C19.9086 16.6892 19.804 16.995 19.6097 17.242C19.4154 17.4889 19.1428 17.6625 18.8368 17.7341C18.2997 17.4229 17.7081 17.2172 17.0938 17.128V16.3546C17.5286 16.03 17.8819 15.6089 18.126 15.1243C18.3701 14.6397 18.4981 14.105 18.5 13.5625V12.6231C18.6283 12.7625 18.7696 12.8894 18.9219 13.0021C19.0093 13.067 19.0803 13.1515 19.1292 13.2488C19.178 13.3461 19.2033 13.4536 19.2031 13.5625ZM12.1719 10.75C12.1708 10.0049 12.4648 9.28971 12.9896 8.76083C13.4953 8.25926 14.1707 7.96548 14.8824 7.93747C15.2471 7.93087 15.6095 7.99678 15.9486 8.13136C16.2876 8.26594 16.5966 8.46652 16.8575 8.72145C17.1551 9.00954 17.3917 9.35461 17.5531 9.73611C17.7145 10.1176 17.7974 10.5277 17.7969 10.9419C17.8001 11.1189 17.8237 11.2949 17.8672 11.4665C17.844 11.4665 17.8236 11.4531 17.7969 11.4531H17.6759C17.4895 11.4531 17.3107 11.379 17.1788 11.2471L16.1846 10.2529C16.0528 10.121 15.8739 10.047 15.6875 10.047C15.5011 10.047 15.3222 10.121 15.1904 10.2529L14.6082 10.835C14.4128 11.0316 14.1802 11.1875 13.9241 11.2936C13.668 11.3997 13.3934 11.4539 13.1162 11.4531H12.1719C12.1482 11.4563 12.1247 11.461 12.1016 11.4672C12.1457 11.2936 12.1693 11.1154 12.1719 10.9363V10.75ZM10.7867 15.1424C10.8817 15.0904 10.9634 15.0172 11.0254 14.9285C11.0874 14.8397 11.1281 14.7379 11.1443 14.6308C11.1605 14.5238 11.1517 14.4144 11.1188 14.3113C11.0858 14.2082 11.0294 14.1141 10.9541 14.0364C10.8309 13.9096 10.7631 13.7392 10.7656 13.5625C10.7664 13.4517 10.793 13.3426 10.8434 13.244C10.8938 13.1453 10.9667 13.0598 11.056 12.9943C11.205 12.8826 11.3432 12.7571 11.4688 12.6196V13.5625C11.4703 14.1054 11.5982 14.6405 11.8423 15.1255C12.0864 15.6104 12.4399 16.0319 12.875 16.3567V17.1301C12.2607 17.2193 11.6691 17.425 11.132 17.7362C10.8256 17.6645 10.5528 17.4907 10.3584 17.2432C10.164 16.9958 10.0597 16.6896 10.0625 16.375C10.062 16.1235 10.1289 15.8766 10.2563 15.6598C10.3837 15.443 10.5668 15.2643 10.7867 15.1424Z" fill="url(#paint7_linear_4474_7161)"/>
<defs>
<linearGradient id="paint0_linear_4474_7161" x1="14.9844" y1="44.616" x2="14.9844" y2="-0.692655" gradientUnits="userSpaceOnUse">
<stop stop-color="#E93E3A"/>
<stop offset="0.35" stop-color="#ED683C"/>
<stop offset="0.7" stop-color="#F3903F"/>
<stop offset="1" stop-color="#FDC70C"/>
</linearGradient>
<linearGradient id="paint1_linear_4474_7161" x1="30.921" y1="44.6165" x2="30.921" y2="-0.692123" gradientUnits="userSpaceOnUse">
<stop stop-color="#E93E3A"/>
<stop offset="0.35" stop-color="#ED683C"/>
<stop offset="0.7" stop-color="#F3903F"/>
<stop offset="1" stop-color="#FDC70C"/>
</linearGradient>
<linearGradient id="paint2_linear_4474_7161" x1="28.3409" y1="44.6165" x2="28.3409" y2="-0.692132" gradientUnits="userSpaceOnUse">
<stop stop-color="#E93E3A"/>
<stop offset="0.35" stop-color="#ED683C"/>
<stop offset="0.7" stop-color="#F3903F"/>
<stop offset="1" stop-color="#FDC70C"/>
</linearGradient>
<linearGradient id="paint3_linear_4474_7161" x1="6.54687" y1="44.616" x2="6.54687" y2="-0.692655" gradientUnits="userSpaceOnUse">
<stop stop-color="#E93E3A"/>
<stop offset="0.35" stop-color="#ED683C"/>
<stop offset="0.7" stop-color="#F3903F"/>
<stop offset="1" stop-color="#FDC70C"/>
</linearGradient>
<linearGradient id="paint4_linear_4474_7161" x1="15.3359" y1="44.616" x2="15.3359" y2="-0.692655" gradientUnits="userSpaceOnUse">
<stop stop-color="#E93E3A"/>
<stop offset="0.35" stop-color="#ED683C"/>
<stop offset="0.7" stop-color="#F3903F"/>
<stop offset="1" stop-color="#FDC70C"/>
</linearGradient>
<linearGradient id="paint5_linear_4474_7161" x1="13.5781" y1="44.616" x2="13.5781" y2="-0.692656" gradientUnits="userSpaceOnUse">
<stop stop-color="#E93E3A"/>
<stop offset="0.35" stop-color="#ED683C"/>
<stop offset="0.7" stop-color="#F3903F"/>
<stop offset="1" stop-color="#FDC70C"/>
</linearGradient>
<linearGradient id="paint6_linear_4474_7161" x1="13.9297" y1="44.616" x2="13.9297" y2="-0.692656" gradientUnits="userSpaceOnUse">
<stop stop-color="#E93E3A"/>
<stop offset="0.35" stop-color="#ED683C"/>
<stop offset="0.7" stop-color="#F3903F"/>
<stop offset="1" stop-color="#FDC70C"/>
</linearGradient>
<linearGradient id="paint7_linear_4474_7161" x1="14.9844" y1="44.616" x2="14.9844" y2="-0.692687" gradientUnits="userSpaceOnUse">
<stop stop-color="#E93E3A"/>
<stop offset="0.35" stop-color="#ED683C"/>
<stop offset="0.7" stop-color="#F3903F"/>
<stop offset="1" stop-color="#FDC70C"/>
</linearGradient>
</defs>
</svg>
