<svg width="16" height="20" viewBox="0 0 16 20" fill="none" xmlns="http://www.w3.org/2000/svg">
<path d="M8.0013 0.333221C7.71398 0.333221 7.43843 0.447358 7.23527 0.650523C7.03211 0.853687 6.91797 1.12924 6.91797 1.41655V11.7396L2.34847 7.16472C2.24353 7.05964 2.1189 6.97628 1.98171 6.9194C1.84453 6.86252 1.69748 6.83325 1.54897 6.83325C1.40046 6.83325 1.25341 6.86252 1.11622 6.9194C0.979038 6.97628 0.854411 7.05964 0.749469 7.16472C0.537379 7.37718 0.418258 7.66511 0.418258 7.96531C0.418258 8.2655 0.537379 8.55344 0.749469 8.76589L7.14547 15.1684C7.38055 15.4035 7.69364 15.514 8.0013 15.4988C8.30897 15.514 8.62205 15.4035 8.85714 15.1684L15.2531 8.76589C15.4652 8.55344 15.5843 8.2655 15.5843 7.96531C15.5843 7.66511 15.4652 7.37718 15.2531 7.16472C15.1482 7.05964 15.0236 6.97628 14.8864 6.9194C14.7492 6.86252 14.6021 6.83325 14.4536 6.83325C14.3051 6.83325 14.1581 6.86252 14.0209 6.9194C13.8837 6.97628 13.7591 7.05964 13.6541 7.16472L9.08464 11.7396V1.41655C9.08464 1.12924 8.9705 0.853687 8.76733 0.650523C8.56417 0.447358 8.28862 0.333221 8.0013 0.333221ZM0.417969 18.7499C0.417969 18.4626 0.532106 18.187 0.73527 17.9839C0.938434 17.7807 1.21398 17.6666 1.5013 17.6666H14.5013C14.7886 17.6666 15.0642 17.7807 15.2673 17.9839C15.4705 18.187 15.5846 18.4626 15.5846 18.7499C15.5846 19.0372 15.4705 19.3128 15.2673 19.5159C15.0642 19.7191 14.7886 19.8332 14.5013 19.8332H1.5013C1.21398 19.8332 0.938434 19.7191 0.73527 19.5159C0.532106 19.3128 0.417969 19.0372 0.417969 18.7499Z" fill="white"/>
</svg>
