<svg width="62" height="12" viewBox="0 0 62 12" fill="none" xmlns="http://www.w3.org/2000/svg">
<g clip-path="url(#clip0_3269_4231)">
<path d="M3.92922 11.7856H1.61039V5.9915H0.0307617V4.10506H1.61033V2.76273C1.61033 1.17207 2.30898 0.03125 4.62153 0.03125C5.11064 0.03125 5.87851 0.130065 5.87851 0.130065V1.88172H5.07199C4.25021 1.88172 3.92935 2.13228 3.92935 2.82497V4.10506H5.84775L5.67691 5.9915H3.92928L3.92922 11.7856ZM9.24984 3.95431C9.21605 3.95431 9.18128 3.95555 9.14688 3.95641C6.99673 3.95641 6.01298 5.57755 6.01298 7.87879C6.01298 10.7777 7.28904 11.938 9.16368 11.938C10.2362 11.938 10.9409 11.4855 11.3692 10.6411V11.7864H13.5748V4.10587H11.3692V5.28702C11.0195 4.52709 10.2951 3.96332 9.24984 3.95431ZM9.81064 5.76919C10.7137 5.76919 11.2557 6.40057 11.2557 7.47453L11.2578 8.57142C11.2578 9.29527 10.8101 10.1421 9.81064 10.1421C8.27402 10.1421 8.31507 8.47902 8.31507 7.92512C8.31507 6.06188 9.13378 5.76919 9.81064 5.76919ZM14.4655 7.94652C14.4655 7.0132 14.4209 3.95931 18.3904 3.95931C19.9838 3.95931 20.6492 4.46714 20.6492 4.46714L20.1144 6.12966C20.1144 6.12966 19.4499 5.7629 18.5841 5.7629C17.4751 5.7629 16.7674 6.4073 16.7674 7.54108L16.7687 8.35405C16.7687 9.44349 17.4514 10.1707 18.5863 10.1707C19.3751 10.1707 20.1021 9.80051 20.1021 9.80051L20.6356 11.4283C20.6356 11.4283 20.0272 11.9393 18.4015 11.9393C14.622 11.9393 14.4655 9.19941 14.4655 7.94652H14.4655ZM33.581 3.95641C35.7312 3.95641 36.7305 5.57755 36.7305 7.87879C36.7305 10.7777 35.4544 11.938 33.5797 11.938C32.5072 11.938 31.7143 11.4855 31.286 10.6411V11.7864L29.1082 11.7855V0.26478L31.4205 0.0626463V5.18296C31.7542 4.28715 32.8509 3.95641 33.581 3.95641ZM32.9328 5.76919C32.0297 5.76919 31.4205 6.40057 31.4205 7.47453L31.4183 8.57142C31.417 9.29527 31.8402 10.1421 32.9328 10.1421C34.4694 10.1421 34.4284 8.47902 34.4284 7.92512C34.4284 6.06188 33.6097 5.76919 32.9328 5.76919ZM24.6611 3.96276C22.2223 3.96276 20.9348 5.29553 20.9348 7.66401V8.10406C20.9348 11.1781 22.7429 11.9696 24.8984 11.9696C26.9936 11.9696 27.942 11.3822 27.942 11.3822L27.5093 9.8179C27.5093 9.8179 26.3938 10.2937 25.1757 10.2937C23.9129 10.2937 23.3698 9.97106 23.2306 8.75468H28.1269V7.49975C28.1269 4.93056 26.6819 3.9627 24.661 3.9627L24.6611 3.96276ZM24.7199 5.52913C25.564 5.52913 26.1111 6.048 26.081 7.25136H23.2349C23.2842 5.98483 23.8741 5.52913 24.7199 5.52913ZM41.341 3.95221C38.8366 3.95221 37.5181 5.36684 37.5181 7.90192C37.5181 11.3802 39.7909 11.9401 41.3452 11.9401C43.6207 11.9401 45.1345 10.7122 45.1345 7.9335C45.1345 5.0414 43.4324 3.95221 41.341 3.95221ZM41.3095 5.77548C42.4108 5.77548 42.8471 6.6016 42.8471 7.54194V8.35042C42.8471 9.48957 42.2365 10.1485 41.3053 10.1485C40.4344 10.1485 39.8224 9.53213 39.8224 8.35042V7.54194C39.8224 6.28165 40.5507 5.77548 41.3095 5.77548ZM49.7409 3.95221C47.2365 3.95221 45.918 5.36684 45.918 7.90192C45.918 11.3802 48.1908 11.9401 49.7451 11.9401C52.0205 11.9401 53.5344 10.7122 53.5344 7.9335C53.5344 5.0414 51.8322 3.95221 49.7409 3.95221ZM49.7094 5.77548C50.8106 5.77548 51.2469 6.6016 51.2469 7.54194V8.35042C51.2469 9.48957 50.6364 10.1485 49.7052 10.1485C48.8343 10.1485 48.2223 9.53213 48.2223 8.35042V7.54194C48.2223 6.28165 48.9506 5.77548 49.7094 5.77548ZM54.4082 11.7856V0.26478L56.7271 0.0626463V7.7846L59.0278 4.10506H61.4768L59.0768 7.91599L61.5692 11.7856H59.1133L56.7271 8.02825V11.7856H54.4082Z" fill="#1877F2"/>
</g>
<defs>
<clipPath id="clip0_3269_4231">
<rect width="61.6" height="12" fill="white"/>
</clipPath>
</defs>
</svg>
