<svg width="16" height="16" viewBox="0 0 16 16" fill="none" xmlns="http://www.w3.org/2000/svg">
<path d="M8.10052 3.82365C5.971 3.82365 4.25237 5.54231 4.25237 7.67188C4.25237 9.80144 5.971 11.5201 8.10052 11.5201C10.23 11.5201 11.9487 9.80144 11.9487 7.67188C11.9487 5.54231 10.23 3.82365 8.10052 3.82365ZM8.10052 10.1729C6.72337 10.1729 5.5995 9.04906 5.5995 7.67188C5.5995 6.29469 6.72337 5.17081 8.10052 5.17081C9.47768 5.17081 10.6015 6.29469 10.6015 7.67188C10.6015 9.04906 9.47768 10.1729 8.10052 10.1729ZM12.1063 2.76919C11.6091 2.76919 11.2076 3.17071 11.2076 3.66792C11.2076 4.16513 11.6091 4.56665 12.1063 4.56665C12.6035 4.56665 13.005 4.16701 13.005 3.66792C13.0051 3.54985 12.982 3.43292 12.9369 3.32381C12.8918 3.21471 12.8256 3.11557 12.7421 3.03209C12.6586 2.94861 12.5595 2.88241 12.4504 2.8373C12.3413 2.79218 12.2243 2.76904 12.1063 2.76919ZM15.6017 7.67188C15.6017 6.63618 15.6111 5.60986 15.5529 4.57603C15.4948 3.37522 15.2208 2.3095 14.3428 1.43141C13.4628 0.551439 12.399 0.27938 11.1982 0.221216C10.1625 0.163052 9.1362 0.172433 8.1024 0.172433C7.06672 0.172433 6.04042 0.163052 5.00662 0.221216C3.80583 0.27938 2.74013 0.553315 1.86205 1.43141C0.982096 2.31138 0.710042 3.37522 0.651879 4.57603C0.593716 5.61173 0.603097 6.63805 0.603097 7.67188C0.603097 8.7057 0.593716 9.73389 0.651879 10.7677C0.710042 11.9685 0.983972 13.0342 1.86205 13.9123C2.742 14.7923 3.80583 15.0644 5.00662 15.1225C6.0423 15.1807 7.06859 15.1713 8.1024 15.1713C9.13808 15.1713 10.1644 15.1807 11.1982 15.1225C12.399 15.0644 13.4647 14.7904 14.3428 13.9123C15.2227 13.0324 15.4948 11.9685 15.5529 10.7677C15.613 9.73389 15.6017 8.70757 15.6017 7.67188ZM13.9506 12.0961C13.8137 12.4376 13.6485 12.6928 13.384 12.9554C13.1194 13.22 12.8662 13.3851 12.5247 13.5221C11.5378 13.9142 9.19437 13.826 8.10052 13.826C7.00668 13.826 4.66139 13.9142 3.67449 13.524C3.33302 13.387 3.07785 13.2219 2.81518 12.9573C2.55063 12.6928 2.38552 12.4395 2.24855 12.098C1.8583 11.1092 1.94648 8.76574 1.94648 7.67188C1.94648 6.57801 1.8583 4.23268 2.24855 3.24576C2.38552 2.90428 2.55063 2.64911 2.81518 2.38643C3.07972 2.12375 3.33302 1.95676 3.67449 1.8198C4.66139 1.42953 7.00668 1.51772 8.10052 1.51772C9.19437 1.51772 11.5397 1.42953 12.5266 1.8198C12.868 1.95676 13.1232 2.12188 13.3859 2.38643C13.6504 2.65098 13.8155 2.90428 13.9525 3.24576C14.3428 4.23268 14.2546 6.57801 14.2546 7.67188C14.2546 8.76574 14.3427 11.1092 13.9506 12.0961Z" fill="#1450A3"/>
</svg>
