<svg width="19" height="19" viewBox="0 0 19 19" fill="none" xmlns="http://www.w3.org/2000/svg">
<path d="M2.188 4.376C3.3964 4.376 4.376 3.3964 4.376 2.188C4.376 0.979601 3.3964 0 2.188 0C0.979601 0 0 0.979601 0 2.188C0 3.3964 0.979601 4.376 2.188 4.376Z" fill="#1450A3"/>
<path d="M6.44229 6.03437V18.1734H10.2113V12.1704C10.2113 10.5864 10.5093 9.05237 12.4733 9.05237C14.4103 9.05237 14.4343 10.8634 14.4343 12.2704V18.1744H18.2053V11.5174C18.2053 8.24738 17.5013 5.73438 13.6793 5.73438C11.8443 5.73438 10.6143 6.74137 10.1113 7.69438H10.0603V6.03437H6.44229ZM0.300293 6.03437H4.07529V18.1734H0.300293V6.03437Z" fill="#1450A3"/>
</svg>
