<svg width="85" height="21" viewBox="0 0 85 21" fill="none" xmlns="http://www.w3.org/2000/svg">
<g clip-path="url(#clip0_1867_1402)">
<path d="M62.2534 2.25153C62.2534 1.46582 62.983 0.828125 63.8826 0.828125H82.6669C83.5667 0.828125 84.296 1.46582 84.296 2.25153V19.2753C84.296 20.0613 83.5667 20.6985 82.6669 20.6985H63.8826C62.983 20.6985 62.2534 20.0613 62.2534 19.2756V2.25153Z" fill="#006699"/>
<path d="M0.549072 17.4735H9.74805V14.7679H3.87868V4.44681H0.549072V17.4735ZM14.4054 17.4735V8.50098H11.0761V17.4735H14.4054ZM12.7411 7.27616C13.9018 7.27616 14.6245 6.58713 14.6245 5.72558C14.603 4.84527 13.9018 4.17578 12.7632 4.17578C11.6242 4.17578 10.8794 4.84553 10.8794 5.72558C10.8794 6.58713 11.6021 7.27616 12.7192 7.27616H12.7411ZM15.9511 17.4735H19.2804V12.4626C19.2804 12.1945 19.302 11.9263 19.3901 11.7353C19.6304 11.1995 20.1782 10.6444 21.0981 10.6444C22.3031 10.6444 22.7852 11.4674 22.7852 12.6729V17.4732H26.1139V12.3287C26.1139 9.57258 24.4714 8.29016 22.2807 8.29016C20.4848 8.29016 19.6962 9.18949 19.258 9.80217H19.2804V8.50098H15.9511C15.995 9.34299 15.9511 17.4735 15.9511 17.4735ZM30.8109 4.44681H27.4815V17.4735H30.8109V14.5644L31.6429 13.626L34.2496 17.4735H38.3452L33.965 11.9037L37.7977 8.11451H33.7899C33.7899 8.11451 31.052 11.5044 30.8109 11.9068V4.44681Z" fill="black"/>
<path d="M47.2489 13.7295C47.2928 13.4991 47.3585 13.0571 47.3585 12.5573C47.3585 10.238 46.0442 7.88317 42.5836 7.88317C38.8819 7.88317 37.1733 10.5056 37.1733 12.8841C37.1733 15.8258 39.2543 17.6628 42.89 17.6628C44.3359 17.6628 45.6715 17.472 46.7671 17.0699L46.329 15.1003C45.4306 15.3671 44.5107 15.5008 43.372 15.5008C41.817 15.5008 40.4593 14.9288 40.3496 13.7102L47.2489 13.729V13.7295ZM40.3278 11.7119C40.4154 10.9463 40.9853 9.81657 42.4088 9.81657C43.9198 9.81657 44.2707 11.0226 44.2707 11.7119H40.3278ZM55.5762 4.44557V8.95502H55.5323C55.0503 8.32384 54.0428 7.90271 52.7075 7.90271C50.1444 7.90271 47.8886 9.73995 47.9101 12.8786C47.9101 15.788 49.9475 17.6828 52.4878 17.6828C53.8679 17.6828 55.1818 17.1465 55.8392 16.113H55.9047L56.0365 17.4723H58.9931C58.9495 16.8406 58.9053 15.7497 58.9053 14.6778V4.44531H55.576L55.5762 4.44557ZM55.5762 13.3191C55.5762 13.5484 55.5544 13.7785 55.5102 13.9693C55.3138 14.7928 54.5251 15.3663 53.5613 15.3663C52.1818 15.3663 51.2834 14.3714 51.2834 12.802C51.2834 11.3286 52.0505 10.1418 53.5834 10.1418C54.6127 10.1418 55.3354 10.7732 55.5326 11.5576C55.5762 11.7304 55.5762 11.922 55.5762 12.094V13.3191Z" fill="black"/>
<path d="M68.9354 17.4618V8.48926H65.606V17.4618H68.9354ZM67.2713 7.26444C68.4321 7.26444 69.1547 6.57541 69.1547 5.71438C69.1329 4.83381 68.4321 4.16406 67.2934 4.16406C66.1538 4.16406 65.4097 4.83381 65.4097 5.71438C65.4097 6.57541 66.132 7.26444 67.2495 7.26444H67.271H67.2713ZM70.7781 17.4618H74.1071V12.4517C74.1071 12.1838 74.1289 11.9154 74.2168 11.7241C74.4574 11.1881 75.0052 10.6332 75.9251 10.6332C77.1295 10.6332 77.6116 11.4559 77.6116 12.6623V17.4618H80.9406V12.3172C80.9406 9.56138 79.2983 8.27896 77.108 8.27896C75.3121 8.27896 74.5234 9.17803 74.0853 9.79045H74.1074V8.48952H70.7784C70.8217 9.33127 70.7781 17.4618 70.7781 17.4618Z" fill="white"/>
</g>
<defs>
<clipPath id="clip0_1867_1402">
<rect width="83.7699" height="19.8703" fill="white" transform="translate(0.538086 0.828125)"/>
</clipPath>
</defs>
</svg>
