<svg width="54" height="54" viewBox="0 0 54 54" fill="none" xmlns="http://www.w3.org/2000/svg">
<path d="M31.6153 15.5117H22.3762V24.6967H31.6153V15.5117Z" fill="#FDAF3F"/>
<path d="M26.9999 50.4558C34.8844 50.4558 41.2761 44.1015 41.2761 36.263C41.2761 28.4246 34.8844 22.0703 26.9999 22.0703C19.1153 22.0703 12.7236 28.4246 12.7236 36.263C12.7236 44.1015 19.1153 50.4558 26.9999 50.4558Z" fill="#FFE550"/>
<path d="M37.2854 3.23492H16.7148C16.4086 3.23382 16.1053 3.29294 15.8223 3.40889C15.5392 3.52485 15.2821 3.69534 15.0656 3.91054C14.8491 4.12574 14.6776 4.38139 14.561 4.66278C14.4444 4.94416 14.3849 5.24571 14.386 5.55005V10.6836C14.385 11.3595 14.5404 12.0265 14.8404 12.6331C15.1403 13.2397 15.5767 13.7695 16.1157 14.1814L22.3763 18.9878H31.6576L37.9182 14.1814C38.4587 13.7703 38.8967 13.2409 39.1981 12.6343C39.4996 12.0277 39.6564 11.3602 39.6563 10.6836V5.55005C39.6575 5.24214 39.5967 4.9371 39.4774 4.65293C39.3582 4.36875 39.1829 4.11119 38.9619 3.89543C38.741 3.67966 38.4788 3.51006 38.1908 3.39662C37.9029 3.28318 37.595 3.2282 37.2854 3.23492Z" fill="#FB5058"/>
<path d="M31.6153 3.23828H22.3762V18.9912H31.6153V3.23828Z" fill="#E7E7E6"/>
<path d="M27.8437 31.1867L28.9912 33.5522L31.6321 33.8877C31.8084 33.9081 31.9751 33.9783 32.1125 34.09C32.2499 34.2017 32.3522 34.3503 32.4072 34.518C32.4623 34.6857 32.4678 34.8656 32.4232 35.0364C32.3785 35.2072 32.2855 35.3616 32.1553 35.4815L30.2146 37.3101L30.704 39.9104C30.7389 40.083 30.7235 40.2619 30.6595 40.426C30.5955 40.5901 30.4856 40.7326 30.3428 40.8366C30.2 40.9407 30.0302 41.002 29.8535 41.0132C29.6768 41.0245 29.5006 40.9853 29.3456 40.9002L26.9999 39.6588L24.6543 40.9338C24.4993 41.0188 24.3231 41.058 24.1464 41.0468C23.9697 41.0355 23.7999 40.9742 23.6571 40.8702C23.5143 40.7661 23.4044 40.6236 23.3404 40.4595C23.2764 40.2954 23.261 40.1165 23.2959 39.944L23.7853 37.3436L21.8446 35.515C21.7144 35.3952 21.6214 35.2407 21.5767 35.07C21.5321 34.8992 21.5376 34.7193 21.5927 34.5516C21.6477 34.3838 21.75 34.2353 21.8874 34.1236C22.0248 34.0119 22.1915 33.9417 22.3678 33.9213L25.0087 33.5857L26.1562 31.1867C26.2302 31.0261 26.3491 30.89 26.4987 30.7946C26.6482 30.6992 26.8222 30.6484 26.9999 30.6484C27.1777 30.6484 27.3517 30.6992 27.5012 30.7946C27.6508 30.89 27.7697 31.0261 27.8437 31.1867Z" fill="#FDAF3F"/>
<path d="M32.4677 22.2615V19.4012L38.3739 14.8464C39.0147 14.349 39.5325 13.7125 39.8879 12.9855C40.2432 12.2586 40.4267 11.4606 40.4242 10.6524V5.55237C40.422 4.71658 40.0871 3.91565 39.4926 3.32465C38.8981 2.73365 38.0925 2.40065 37.2517 2.39844H16.7149C15.8742 2.40065 15.0685 2.73365 14.474 3.32465C13.8796 3.91565 13.5446 4.71658 13.5424 5.55237V10.6859C13.5399 11.4941 13.7234 12.2922 14.0788 13.0191C14.4341 13.746 14.952 14.3825 15.5927 14.88L21.4989 19.4347V22.2951C18.213 23.5666 15.4775 25.9398 13.7654 29.0042C12.0533 32.0686 11.4723 35.6315 12.123 39.0767C12.7736 42.5219 14.615 45.6327 17.3286 47.871C20.0421 50.1093 23.4573 51.3344 26.9833 51.3344C30.5093 51.3344 33.9245 50.1093 36.638 47.871C39.3516 45.6327 41.193 42.5219 41.8436 39.0767C42.4943 35.6315 41.9133 32.0686 40.2012 29.0042C38.4891 25.9398 35.7536 23.5666 32.4677 22.2951V22.2615ZM23.1864 4.07606H30.7802V18.1513H23.1864V4.07606ZM38.8127 5.55237V10.6859C38.8108 11.232 38.6837 11.7704 38.441 12.2602C38.1983 12.7501 37.8464 13.1784 37.4121 13.5127L32.4677 17.279V4.07606H37.2855C37.484 4.07045 37.6817 4.10449 37.8667 4.17617C38.0518 4.24785 38.2205 4.3557 38.3629 4.49335C38.5053 4.631 38.6185 4.79565 38.6957 4.97756C38.773 5.15946 38.8128 5.35492 38.8127 5.55237ZM15.2721 10.6859V5.55237C15.2721 5.3585 15.3105 5.16653 15.3851 4.98741C15.4597 4.8083 15.5691 4.64555 15.707 4.50846C15.8449 4.37138 16.0086 4.26263 16.1888 4.18844C16.3689 4.11425 16.562 4.07606 16.7571 4.07606H21.5749V17.279L16.6727 13.5211C16.2309 13.189 15.8712 12.7609 15.6212 12.2695C15.3711 11.7782 15.2373 11.2365 15.2299 10.6859H15.2721ZM23.2624 19.829H30.8561V21.7247C28.3692 21.0587 25.7493 21.0587 23.2624 21.7247V19.829ZM27.0002 49.6068C24.3431 49.6068 21.7458 48.8234 19.5366 47.3557C17.3275 45.888 15.6058 43.8019 14.5894 41.3613C13.5729 38.9207 13.3074 36.2353 13.8264 33.6446C14.3454 31.054 15.6255 28.6746 17.505 26.8073C19.3844 24.9401 21.7786 23.6689 24.3848 23.1546C26.991 22.6403 29.6921 22.9059 32.1464 23.9179C34.6007 24.93 36.698 26.6429 38.173 28.84C39.648 31.0371 40.4343 33.6198 40.4327 36.2613C40.4282 39.8009 39.0113 43.194 36.4929 45.6961C33.9746 48.1981 30.5606 49.6046 27.0002 49.6068ZM38.4077 36.2613C38.4088 38.0642 37.9776 39.8414 37.1497 41.4455C36.3218 43.0495 35.1212 44.4343 33.6474 45.4848C32.1736 46.5354 30.4691 47.2215 28.6753 47.4862C26.8814 47.751 25.0499 47.5867 23.3327 47.0071C21.6155 46.4275 20.062 45.4492 18.8011 44.1534C17.5402 42.8575 16.6083 41.2815 16.0826 39.5561C15.5568 37.8306 15.4525 36.0054 15.7781 34.2318C16.1038 32.4582 16.8501 30.7874 17.9552 29.3579C18.0917 29.181 18.2933 29.0653 18.5156 29.0362C18.7379 29.0071 18.9627 29.067 19.1407 29.2027C19.3186 29.3384 19.4349 29.5388 19.4642 29.7598C19.4935 29.9809 19.4332 30.2044 19.2967 30.3812C18.3539 31.5994 17.7169 33.0236 17.4388 34.5356C17.1606 36.0476 17.2493 37.6038 17.6975 39.0749C18.1456 40.5459 18.9403 41.8895 20.0155 42.9941C21.0907 44.0986 22.4154 44.9322 23.8797 45.4257C25.344 45.9191 26.9055 46.0582 28.4347 45.8313C29.9639 45.6045 31.4166 45.0183 32.6722 44.1213C33.9278 43.2244 34.95 42.0426 35.654 40.6742C36.3581 39.3057 36.7236 37.79 36.7202 36.2529C36.7135 33.6929 35.687 31.2398 33.8654 29.4304C32.0437 27.621 29.5753 26.6026 27.0002 26.5982C25.6021 26.581 24.2171 26.8672 22.9417 27.437C22.8409 27.4827 22.732 27.5082 22.6213 27.5121C22.5105 27.516 22.4001 27.4981 22.2963 27.4596C22.1924 27.421 22.0973 27.3625 22.0162 27.2874C21.9352 27.2123 21.8698 27.122 21.8238 27.0218C21.7778 26.9216 21.7521 26.8133 21.7482 26.7032C21.7443 26.5931 21.7623 26.4833 21.8011 26.3801C21.8398 26.2769 21.8987 26.1823 21.9743 26.1017C22.0498 26.0211 22.1406 25.9561 22.2414 25.9104C23.736 25.2392 25.3603 24.9014 27.0002 24.9206C30.0243 24.925 32.9232 26.1213 35.0616 28.2471C37.1999 30.3729 38.4032 33.2549 38.4077 36.2613ZM22.8742 37.637L22.4608 39.7927C22.4155 40.0477 22.4266 40.3095 22.4931 40.5599C22.5597 40.8102 22.6803 41.0432 22.8464 41.2427C23.0125 41.4422 23.2203 41.6033 23.4553 41.7151C23.6903 41.8268 23.9469 41.8864 24.2074 41.8897C24.5023 41.8867 24.792 41.8118 25.0511 41.6717L27.0002 40.6148L28.9408 41.6717C29.2364 41.8309 29.5712 41.9037 29.9067 41.8816C30.2421 41.8596 30.5644 41.7436 30.8362 41.547C31.1081 41.3504 31.3185 41.0813 31.4429 40.7709C31.5674 40.4604 31.6009 40.1213 31.5396 39.7927L31.1261 37.637L32.7377 36.1271C32.981 35.8967 33.1538 35.6026 33.2361 35.2788C33.3183 34.9549 33.3067 34.6145 33.2026 34.2969C33.0985 33.9793 32.9061 33.6975 32.6476 33.484C32.3891 33.2705 32.0752 33.1342 31.7421 33.0906L29.5314 32.8054L28.6033 30.8258C28.4601 30.5234 28.2333 30.2678 27.9495 30.0887C27.6656 29.9096 27.3364 29.8146 27.0002 29.8146C26.664 29.8146 26.3347 29.9096 26.0509 30.0887C25.767 30.2678 25.5402 30.5234 25.3971 30.8258L24.4689 32.8054L22.2836 33.0906C21.9505 33.1342 21.6365 33.2705 21.3781 33.484C21.1196 33.6975 20.9272 33.9793 20.8231 34.2969C20.7189 34.6145 20.7073 34.9549 20.7896 35.2788C20.8719 35.6026 21.0447 35.8967 21.288 36.1271L22.8742 37.637ZM22.4777 34.7515L25.1186 34.4159C25.26 34.398 25.3945 34.3447 25.5096 34.2611C25.6247 34.1775 25.7166 34.0663 25.7767 33.9378L26.9158 31.5472C26.9232 31.5311 26.9351 31.5175 26.9501 31.508C26.965 31.4984 26.9824 31.4934 27.0002 31.4934C27.018 31.4934 27.0354 31.4984 27.0503 31.508C27.0653 31.5175 27.0772 31.5311 27.0846 31.5472L28.2236 33.9378C28.2838 34.0663 28.3757 34.1775 28.4907 34.2611C28.6058 34.3447 28.7404 34.398 28.8817 34.4159L31.5227 34.7515C31.5227 34.7515 31.5817 34.7514 31.5986 34.8186C31.6077 34.8323 31.6125 34.8483 31.6125 34.8647C31.6125 34.8811 31.6077 34.8971 31.5986 34.9108L29.658 36.7311C29.5564 36.8279 29.4808 36.9485 29.4381 37.0818C29.3953 37.2151 29.3868 37.3569 29.4133 37.4944L29.9027 40.1031C29.9027 40.1031 29.9027 40.1534 29.9027 40.187C29.8888 40.1993 29.8707 40.2062 29.8521 40.2062C29.8334 40.2062 29.8154 40.1993 29.8014 40.187L27.4642 38.9204C27.336 38.8467 27.1905 38.808 27.0424 38.808C26.8943 38.808 26.7488 38.8467 26.6205 38.9204L24.2833 40.187C24.2682 40.1967 24.2507 40.2019 24.2327 40.2019C24.2147 40.2019 24.1971 40.1967 24.1821 40.187C24.1399 40.187 24.1399 40.1199 24.1821 40.1031L24.6714 37.4944C24.6979 37.3569 24.6894 37.2151 24.6467 37.0818C24.6039 36.9485 24.5283 36.8279 24.4267 36.7311L22.4861 34.9108C22.477 34.8971 22.4722 34.8811 22.4722 34.8647C22.4722 34.8483 22.477 34.8323 22.4861 34.8186C22.4186 34.7598 22.4524 34.7598 22.4777 34.7515Z" fill="black"/>
</svg>
