<svg width="40" height="36" viewBox="0 0 40 36" fill="none" xmlns="http://www.w3.org/2000/svg">
<path fill-rule="evenodd" clip-rule="evenodd" d="M17.5 31.7499C17.5 33.8202 15.8203 35.4999 13.75 35.4999H3.74999C1.67968 35.4999 0 33.8202 0 31.7499V13C0 6.09371 5.59371 0.5 12.5 0.5H13.125C14.164 0.5 15 1.33595 15 2.375V6.12499C15 7.16403 14.164 7.99998 13.125 7.99998H12.5C9.74218 7.99998 7.49998 10.2422 7.49998 13V18H13.75C15.8203 18 17.5 19.6796 17.5 21.7499V31.7499ZM39.9999 31.7499C39.9999 33.8202 38.3202 35.4999 36.2499 35.4999H26.2499C24.1796 35.4999 22.4999 33.8202 22.4999 31.7499V13C22.4999 6.09371 28.0937 0.5 34.9999 0.5H35.6249C36.664 0.5 37.4999 1.33595 37.4999 2.375V6.12499C37.4999 7.16403 36.664 7.99998 35.6249 7.99998H34.9999C32.2421 7.99998 29.9999 10.2422 29.9999 13V18H36.2499C38.3202 18 39.9999 19.6796 39.9999 21.7499V31.7499Z" fill="white"/>
</svg>
