<svg width="55" height="40" viewBox="0 0 55 40" fill="none" xmlns="http://www.w3.org/2000/svg">
<path d="M19.8096 6.44825C17.5146 7.66895 15.6836 8.74317 14.3164 9.6709C12.9492 10.5987 11.8018 11.7705 10.874 13.1865C9.99512 14.6026 9.55566 16.3115 9.55566 18.3135C10.2881 19.3877 11.1426 20.2422 12.1191 20.877C13.1445 21.5117 14.3896 21.9512 15.8545 22.1953C20.9814 23.1231 23.5449 25.8819 23.5449 30.4717C23.5449 33.2061 22.5928 35.4766 20.6885 37.2832C18.7842 39.0899 16.3184 39.9932 13.291 39.9932C10.7031 39.9932 8.4082 39.3584 6.40625 38.0889C4.4043 36.8194 2.8418 35.0371 1.71875 32.7422C0.644531 30.4473 0.107422 27.835 0.107422 24.9053C0.107422 21.3408 0.888672 17.8496 2.45117 14.4317C4.0625 10.9649 6.38184 8.01075 9.40918 5.56934C12.4365 3.12793 15.9766 1.54102 20.0293 0.808594C21.3965 1.93164 22.2754 3.29883 22.666 4.91016L19.8096 6.44825ZM50.9375 6.44825C48.6426 7.66895 46.8115 8.74317 45.4443 9.6709C44.0771 10.5987 42.9297 11.7705 42.002 13.1865C41.123 14.6026 40.6836 16.3115 40.6836 18.3135C42.0508 20.4131 44.1504 21.7071 46.9824 22.1953C52.0605 23.1231 54.5996 25.8819 54.5996 30.4717C54.5996 33.2061 53.6475 35.4766 51.7432 37.2832C49.8877 39.0899 47.4463 39.9932 44.4189 39.9932C41.8311 39.9932 39.5361 39.3584 37.5342 38.0889C35.5322 36.8194 33.9697 35.0371 32.8467 32.7422C31.7725 30.4473 31.2354 27.835 31.2354 24.9053C31.2354 21.3408 32.0166 17.8496 33.5791 14.4317C35.1904 10.9649 37.5098 8.01075 40.5371 5.56934C43.5645 3.12793 47.1045 1.54102 51.1572 0.808594C52.5244 1.93164 53.4033 3.29883 53.7939 4.91016L50.9375 6.44825Z" fill="#E6E6E6"/>
</svg>
