<svg width="38" height="40" viewBox="0 0 38 40" fill="none" xmlns="http://www.w3.org/2000/svg">
<g clip-path="url(#clip0_4474_7133)">
<path d="M27.4535 38.013H5.29439C4.88814 38.013 4.55575 37.668 4.55575 37.2464V4.6698H2.33984V39.9292H27.4535V38.013Z" fill="url(#paint0_linear_4474_7133)"/>
<path d="M20.2761 10.3803C19.242 10.9322 17.942 10.9322 16.9079 10.3803C15.2533 11.0778 14.1602 12.7488 14.1602 14.6344H23.0238C23.0459 12.8101 21.9084 11.0472 20.2761 10.3803Z" fill="url(#paint1_linear_4474_7133)"/>
<path d="M31.1488 34.5177C23.3192 33.3756 23.2971 21.9546 31.1488 20.8048V7.69752L24.2204 1.22052H6.03516V36.48H31.1488V34.5177ZM20.0692 32.2642H8.25107C7.28345 32.2488 7.27607 30.7541 8.25107 30.7311H20.0692C21.0369 30.7465 21.0442 32.2412 20.0692 32.2642ZM23.7624 26.8986H8.25107C7.84482 26.8986 7.51243 26.5537 7.51243 26.1321C7.51243 25.7105 7.84482 25.3656 8.25107 25.3656H23.7624C24.73 25.3809 24.7374 26.8756 23.7624 26.8986ZM23.7624 21.533H8.25107C7.84482 21.533 7.51243 21.1881 7.51243 20.7665C7.51243 20.3449 7.84482 20 8.25107 20H23.7624C24.73 20.0153 24.7374 21.51 23.7624 21.533ZM24.5011 15.4009C24.5011 15.8225 24.1687 16.1675 23.7624 16.1675H13.4215C13.0153 16.1675 12.6829 15.8225 12.6829 15.4009V14.6344C12.6829 12.3886 13.8425 10.3726 15.667 9.30719C13.7761 6.90802 15.6079 3.05248 18.592 3.13679C21.5761 3.06014 23.4079 6.90802 21.5096 9.30719C23.6147 10.4876 24.6931 12.9711 24.5011 15.4009Z" fill="url(#paint2_linear_4474_7133)"/>
<path d="M17.3794 8.89376C19.6249 10.3425 21.9959 7.31475 20.1567 5.33716C17.7635 3.09128 14.7573 6.93916 17.3794 8.89376Z" fill="url(#paint3_linear_4474_7133)"/>
<path d="M35.5498 31.4593C39.1912 27.6651 35.7196 21.1958 30.6969 22.4452C28.4145 22.9664 26.6714 25.2429 26.7157 27.6651C26.664 32.3791 32.3662 34.8243 35.5498 31.4593ZM31.7679 30.6622C31.4946 30.7925 31.1549 30.7311 30.9407 30.5089L28.9094 28.9375C28.1486 28.3166 29.0054 27.1209 29.7958 27.7111L31.3912 28.9528L34.6339 25.5879C35.3208 24.8827 36.3623 25.9558 35.6827 26.6763L31.9895 30.5089C31.9231 30.5702 31.8492 30.6238 31.7679 30.6622Z" fill="url(#paint4_linear_4474_7133)"/>
</g>
<defs>
<linearGradient id="paint0_linear_4474_7133" x1="-6.95959" y1="9.02357" x2="21.8287" y2="43.1315" gradientUnits="userSpaceOnUse">
<stop stop-color="#00FCFF"/>
<stop offset="1" stop-color="#6900A4"/>
</linearGradient>
<linearGradient id="paint1_linear_4474_7133" x1="6.15334" y1="-2.0448" x2="34.9491" y2="32.0628" gradientUnits="userSpaceOnUse">
<stop stop-color="#00FCFF"/>
<stop offset="1" stop-color="#6900A4"/>
</linearGradient>
<linearGradient id="paint2_linear_4474_7133" x1="2.25334" y1="1.24352" x2="31.0491" y2="35.3511" gradientUnits="userSpaceOnUse">
<stop stop-color="#00FCFF"/>
<stop offset="1" stop-color="#6900A4"/>
</linearGradient>
<linearGradient id="paint3_linear_4474_7133" x1="9.38737" y1="-4.78077" x2="38.1834" y2="29.3345" gradientUnits="userSpaceOnUse">
<stop stop-color="#00FCFF"/>
<stop offset="1" stop-color="#6900A4"/>
</linearGradient>
<linearGradient id="paint4_linear_4474_7133" x1="7.61453" y1="-3.2789" x2="36.4029" y2="30.829" gradientUnits="userSpaceOnUse">
<stop stop-color="#00FCFF"/>
<stop offset="1" stop-color="#6900A4"/>
</linearGradient>
<clipPath id="clip0_4474_7133">
<rect width="37.0909" height="40" fill="white"/>
</clipPath>
</defs>
</svg>
