<svg width="60" height="14" viewBox="0 0 60 14" fill="none" xmlns="http://www.w3.org/2000/svg">
<g clip-path="url(#clip0_3295_3494)">
<path d="M1.15453 2.75155C1.19577 2.00869 1.85556 1.34838 2.65968 1.41028C2.90711 1.45155 3.15453 1.45155 3.5669 1.76108C5.42257 3.3706 6.51535 6.25949 6.20608 8.71504C6.16484 8.85949 6.06175 8.81822 5.99989 8.71504C5.50504 6.96108 3.7937 4.91822 2.24731 4.31981C1.50504 4.01028 1.09267 3.45314 1.15453 2.75155Z" fill="black"/>
<path d="M14.3296 2.60601C14.3296 1.45045 13.3812 0.459975 12.041 0.501245C9.44304 0.56315 5.89665 7.31077 7.93789 13.3981C7.97912 13.5425 8.08222 13.5012 8.08222 13.3568C8.35026 9.10601 10.9482 5.74252 13.1956 4.50442C14.0822 4.00918 14.3296 3.41077 14.3296 2.60601Z" fill="black"/>
<path d="M-0.000222792 8.75694C0.0616329 9.60298 0.742045 9.99504 1.44308 9.99504C2.94823 9.99504 4.78328 10.6966 5.89668 11.6046C5.99978 11.7077 5.99978 11.6458 5.93792 11.4601C5.50493 9.9125 3.09256 7.3125 1.40184 7.3125C0.494623 7.35377 -0.0414599 8.09663 -0.000222792 8.75694Z" fill="black"/>
<path d="M16.0409 8.75694C15.9997 9.60298 15.2986 10.0157 14.5976 10.0157C13.0925 10.0157 11.2574 10.7173 10.144 11.6252C10.0409 11.7284 10.0409 11.6665 10.1028 11.4808C10.5358 9.9125 12.9481 7.3125 14.6388 7.3125C15.5873 7.35377 16.0821 8.09663 16.0409 8.75694Z" fill="black"/>
<path d="M19.6906 8.79843C20.0412 9.04604 20.7422 9.35557 21.4432 9.35557C22.0412 9.35557 22.4948 9.04604 22.4948 8.55081C22.4948 7.35398 19.402 7.74604 19.402 5.70319C19.402 4.54763 20.3917 3.94922 21.6082 3.94922C22.4535 3.94922 22.9071 4.19684 23.5051 4.5889L23.0102 5.33176C22.4535 5.08414 22.1649 4.93969 21.5669 4.93969C20.969 4.93969 20.5154 5.18731 20.5154 5.68255C20.5154 6.87938 23.6082 6.42541 23.6082 8.53017C23.6082 9.58255 22.7628 10.3254 21.402 10.3254C20.4123 10.3254 19.6494 9.93335 19.1958 9.58255L19.6906 8.79843Z" fill="black"/>
<path d="M27.8761 9.29256C28.8246 9.29256 29.6287 8.4878 29.6287 7.14653C29.6287 5.84653 28.9277 5.0005 27.938 5.0005C27.0308 5.0005 26.1854 5.64018 26.1854 7.20843C26.1235 8.26081 26.7833 9.29256 27.8761 9.29256ZM25.0308 13.5021V4.11319H26.0823V4.81478C26.0823 5.02113 26.0411 5.12431 26.0411 5.12431H26.0823C26.0823 5.12431 26.639 3.96875 28.1235 3.96875C29.773 3.96875 30.7627 5.26875 30.7627 7.12589C30.7627 9.06558 29.6081 10.283 28.0205 10.283C26.6802 10.283 26.1235 9.18938 26.1235 9.18938H26.0823C26.0823 9.18938 26.1235 9.39573 26.1235 9.74653V13.4402L25.0308 13.5021Z" fill="black"/>
<path d="M35.4639 5.20634C34.268 5.20634 33.2577 6.50634 33.2577 7.70316V10.2619H32.103V4.11269H33.2577V5.20634C33.2577 5.45396 33.2164 5.6603 33.2164 5.6603H33.2577C33.4639 4.85554 34.5566 4.05078 35.4639 4.05078V5.20634Z" fill="black"/>
<path d="M37.8143 4.11328H36.6597V10.2006H37.8143V4.11328Z" fill="black"/>
<path d="M43.8144 10.1988V6.54642C43.8144 5.70038 43.6701 4.9988 42.6597 4.9988C41.5051 4.9988 40.6185 5.98927 40.6185 7.248V10.1988H39.4639V4.1115H40.6185V5.01943C40.6185 5.22578 40.5773 5.37023 40.5773 5.37023H40.6185C40.8659 4.81308 41.6082 3.92578 42.9072 3.92578C44.3505 3.92578 45.0103 4.73054 45.0103 6.21626V10.1163L43.8144 10.1988Z" fill="black"/>
<path d="M50.6594 10.1992L48.8656 7.31029H47.9584V10.1992H46.8037V0.851562H47.9584V6.36109H48.8037L50.4944 4.15315H51.6903L49.7522 6.79442V6.83569L51.8965 10.2405H50.6388V10.1992H50.6594Z" fill="black"/>
<path d="M55.1545 10.1992C54.2061 10.1992 53.1133 10.0547 53.1133 8.50712V0.851562H54.2679V8.40394C54.2679 9.1468 54.8659 9.1468 55.1133 9.20871V10.1992H55.1545Z" fill="black"/>
<path d="M59.938 5.14443C58.7421 5.14443 57.7318 6.44443 57.7318 7.64126V10.2H56.5771V4.11269H57.7318V5.20634C57.7318 5.45396 57.6905 5.6603 57.6905 5.6603H57.7318C57.9792 4.85554 59.072 4.05078 59.9792 4.05078L59.938 5.14443Z" fill="black"/>
<path d="M37.9587 2.11174C37.9587 2.50381 37.6494 2.81333 37.2577 2.81333C36.8659 2.81333 36.5566 2.50381 36.5566 2.11174C36.5566 1.71968 36.8659 1.41016 37.2577 1.41016C37.67 1.41016 37.9587 1.69905 37.9587 2.11174Z" fill="black"/>
</g>
<defs>
<clipPath id="clip0_3295_3494">
<rect width="60" height="13" fill="white" transform="translate(0 0.5)"/>
</clipPath>
</defs>
</svg>
