<svg width="84" height="20" viewBox="0 0 84 20" fill="none" xmlns="http://www.w3.org/2000/svg">
<path d="M10.1426 9.83736C10.7087 9.83736 11.1848 9.59974 11.5922 9.12641C11.9996 8.65307 12.2042 8.07329 12.2042 7.39085C12.2042 6.70651 11.9996 6.12863 11.5922 5.65529C11.1848 5.18196 10.7087 4.94434 10.1426 4.94434H4.07569V2.49783C4.07569 1.8135 3.87117 1.23561 3.48667 0.762278C3.07926 0.288944 2.60314 0.0513262 2.05993 0.0513262C1.49382 0.0513262 0.996424 0.288944 0.589019 0.762278C0.181614 1.23561 0 1.8154 0 2.49783V12.3105C0 14.3369 0.589019 16.0724 1.78833 17.4924C2.98764 18.9391 4.43728 19.65 6.11271 19.65H10.1655C10.7316 19.65 11.2077 19.4124 11.6151 18.9391C12.0225 18.4657 12.2271 17.8859 12.2271 17.2035C12.2271 16.5211 12.0225 15.9413 11.6151 15.4679C11.2077 14.9946 10.7316 14.757 10.1655 14.757H6.0898C5.52369 14.757 5.04757 14.5194 4.66307 14.046C4.27857 13.5727 4.07405 12.9929 4.07405 12.3105V9.86397L10.1426 9.83736ZM30.1349 5.89101C29.6146 5.89101 29.1614 6.12863 28.7769 6.57535C28.3924 7.02207 28.2108 7.57524 28.2108 8.20635V12.7838C28.2108 13.4149 28.0291 13.9415 27.6675 14.3882C27.306 14.8349 26.8527 15.0459 26.3324 15.0459C25.8121 15.0459 25.3818 14.8349 25.0186 14.3882C24.6554 13.9415 24.4754 13.4149 24.4754 12.7838V8.20635C24.4754 7.57524 24.2938 7.02207 23.9093 6.57535C23.5248 6.12863 23.0716 5.89101 22.5513 5.89101C22.008 5.89101 21.5548 6.12863 21.1703 6.57535C20.7858 7.04868 20.6042 7.57524 20.6042 8.20635V12.7572C20.6042 13.3883 20.4226 13.9149 20.061 14.3616C19.6994 14.8083 19.2462 15.0193 18.7472 15.0193C18.2269 15.0193 17.7737 14.8083 17.4121 14.3616C17.0505 13.9149 16.8689 13.3883 16.8689 12.7572V8.17974C16.8689 7.52201 16.6872 6.99546 16.3027 6.54874C15.9182 6.10201 15.4879 5.89101 14.9447 5.89101C14.4244 5.89101 13.9712 6.10201 13.5867 6.54874C13.2022 6.99546 13.0206 7.52201 13.0206 8.17974V12.7572C13.0206 14.6505 13.5867 16.2815 14.696 17.6236C15.8054 18.9657 17.1634 19.65 18.7488 19.65C20.1985 19.65 21.4665 19.0721 22.53 17.8878C23.6164 19.0721 24.9073 19.65 26.3341 19.65C27.9195 19.65 29.2546 18.9657 30.3868 17.6236C31.4962 16.2815 32.0623 14.6505 32.0623 12.7572V8.17974C32.0623 7.54863 31.8807 6.99546 31.4962 6.54874C31.1313 6.10201 30.6781 5.89101 30.1349 5.89101ZM35.3199 0C34.7538 0 34.2776 0.237618 33.8702 0.710952C33.4628 1.18429 33.2583 1.76407 33.2583 2.44651C33.2583 3.13085 33.4628 3.70873 33.8702 4.18206C34.2776 4.6554 34.7538 4.89302 35.3199 4.89302C35.886 4.89302 36.3621 4.6554 36.7695 4.18206C37.1769 3.70873 37.3815 3.12895 37.3815 2.44651C37.3815 1.76217 37.1769 1.18429 36.7695 0.710952C36.3621 0.235717 35.886 0 35.3199 0ZM35.3199 6.73312C34.7538 6.73312 34.2776 6.97074 33.8702 7.44408C33.4628 7.91741 33.2583 8.4972 33.2583 9.17963V17.1503C33.2583 17.8346 33.4628 18.4125 33.8702 18.8858C34.2776 19.3592 34.7538 19.5968 35.3199 19.5968C35.886 19.5968 36.3621 19.3592 36.7695 18.8858C37.1769 18.4125 37.3815 17.8327 37.3815 17.1503V9.17963C37.3815 8.4953 37.1769 7.91741 36.7695 7.44408C36.3621 6.97074 35.886 6.73312 35.3199 6.73312ZM46.6176 11.9683C47.1837 11.9683 47.6598 11.7307 48.0672 11.2574C48.4746 10.784 48.6792 10.2042 48.6792 9.5218C48.6792 8.83937 48.4746 8.25958 48.0672 7.78625C47.6598 7.31291 47.1837 7.07529 46.6176 7.07529H42.7464V2.49783C42.7464 1.8135 42.5419 1.23561 42.1574 0.762278C41.75 0.288944 41.2739 0.0513262 40.7307 0.0513262C40.1646 0.0513262 39.6672 0.288944 39.2598 0.762278C38.8524 1.23561 38.6707 1.8154 38.6707 2.49783C38.6707 2.49783 37.923 14.124 40.4591 17.4924C41.5913 18.9923 43.108 19.65 44.7835 19.65H46.6176C47.1837 19.65 47.6598 19.4124 48.0672 18.9391C48.4746 18.4657 48.6792 17.8859 48.6792 17.2035C48.6792 16.5211 48.4746 15.9413 48.0672 15.4679C47.6598 14.9946 47.1837 14.757 46.6176 14.757H44.7835C44.2173 14.757 43.7412 14.5194 43.3567 14.046C42.9722 13.5727 42.9951 12.0196 42.9951 12.0196L46.6176 11.9683ZM57.4621 11.9683C58.0282 11.9683 58.5043 11.7307 58.9117 11.2574C59.3191 10.784 59.5237 10.2042 59.5237 9.5218C59.5237 8.83937 59.3191 8.25958 58.9117 7.78625C58.5043 7.31291 58.0282 7.07529 57.4621 7.07529H53.5909V2.49783C53.5909 1.8135 53.3864 1.23561 53.0019 0.762278C52.5945 0.288944 52.1184 0.0513262 51.5752 0.0513262C51.0091 0.0513262 50.5117 0.288944 50.1043 0.762278C49.6969 1.23561 49.5153 1.8154 49.5153 2.49783C49.5153 2.49783 48.7675 14.124 51.3036 17.4924C52.4358 18.9923 53.9525 19.65 55.628 19.65H57.4621C58.0282 19.65 58.5043 19.4124 58.9117 18.9391C59.3191 18.4657 59.5237 17.8859 59.5237 17.2035C59.5237 16.5211 59.3191 15.9413 58.9117 15.4679C58.5043 14.9946 58.0282 14.757 57.4621 14.757H55.6296C55.0635 14.757 54.5874 14.5194 54.2029 14.046C53.8184 13.5727 53.8413 12.0196 53.8413 12.0196L57.4621 11.9683ZM83.1826 6.65519C82.821 6.20847 82.3678 5.99746 81.8475 5.99746H79.0627C77.5002 5.99746 76.1651 6.65519 75.0558 7.99725C73.9465 9.33931 73.3803 10.9437 73.3803 12.8104V17.3347C73.3803 17.9658 73.562 18.4923 73.9465 18.9391C74.3081 19.3858 74.7613 19.5968 75.2816 19.5968C75.8019 19.5968 76.2551 19.3858 76.6167 18.9124C76.9783 18.4657 77.1828 17.9392 77.1828 17.308V12.7838C77.1828 12.1527 77.3644 11.6261 77.726 11.1794C78.0876 10.7327 78.5408 10.5217 79.0611 10.5217H81.8688C82.3891 10.5217 82.8423 10.3107 83.2039 9.86397C83.5655 9.41725 83.77 8.89069 83.77 8.25958C83.7487 7.65318 83.5671 7.10191 83.1826 6.65519ZM66.3154 5.99746C60.1111 5.99746 60.2256 12.4416 60.2256 12.4416C60.2256 14.468 60.6788 16.0192 61.8781 17.4658C63.0774 18.9124 64.5958 19.6234 66.2025 19.6234C70.6398 19.7546 72.1794 17.2814 71.9978 15.888C71.7933 14.7038 70.8427 14.5194 70.2095 14.6524C69.303 14.8102 68.5798 15.8101 67.0402 15.7835C64.2096 15.6257 64.4371 14.1259 64.4371 14.1259H70.6414C72.0452 14.1259 72.6572 13.5727 72.6572 11.9949C72.6555 9.99514 71.183 5.99746 66.3154 5.99746ZM64.4812 11.0464C64.4812 9.46858 66.5183 9.46857 66.5183 9.46857C66.5183 9.46857 68.5553 9.46858 68.5553 11.0464H64.4812Z" fill="#33CCFF"/>
</svg>
