<svg width="18" height="16" viewBox="0 0 18 16" fill="none" xmlns="http://www.w3.org/2000/svg">
<path d="M17.6025 1.95369C16.9774 2.24659 16.297 2.45739 15.5963 2.53949C16.3238 2.07004 16.8687 1.32839 17.1286 0.453689C16.4458 0.894789 15.6979 1.2041 14.918 1.36789C14.592 0.989398 14.1978 0.687875 13.7598 0.482108C13.3219 0.276341 12.8496 0.170739 12.3724 0.171884C10.4417 0.171884 8.88904 1.87159 8.88904 3.95739C8.88904 4.25028 8.92173 4.54318 8.97485 4.82499C6.08397 4.66079 3.50568 3.16079 1.79158 0.864191C1.47925 1.44359 1.31558 2.1033 1.3176 2.77469C1.3176 4.0883 1.93255 5.24659 2.8703 5.9278C2.31767 5.90416 1.77798 5.73918 1.29512 5.44629V5.49289C1.29512 7.33238 2.49234 8.85679 4.08794 9.20738C3.78835 9.2919 3.48015 9.33514 3.17062 9.33608C2.94384 9.33608 2.72933 9.31167 2.51277 9.27839C2.95406 10.7784 4.23912 11.8679 5.76935 11.9034C4.57213 12.9219 3.07255 13.521 1.44426 13.521C1.15211 13.521 0.882433 13.5099 0.602539 13.4744C2.14706 14.5506 3.97966 15.1719 5.95322 15.1719C12.3601 15.1719 15.866 9.40709 15.866 4.40339C15.866 4.23919 15.866 4.07499 15.8558 3.91079C16.534 3.37159 17.1286 2.70369 17.6025 1.95369Z" fill="#1450A3"/>
</svg>
