<svg width="54" height="13" viewBox="0 0 54 13" fill="none" xmlns="http://www.w3.org/2000/svg">
<path fill-rule="evenodd" clip-rule="evenodd" d="M29.6841 8.26567C29.6841 8.36749 29.6672 8.48629 29.6503 8.57115C29.4984 9.0124 29.0931 9.30091 28.6204 9.30091C28.1982 9.30091 27.8774 9.06332 27.8774 8.55418C27.8774 7.7735 28.7217 7.56984 29.701 7.56984V8.26567H29.6841ZM31.2038 6.90796C31.2038 5.63512 30.6635 4.49804 28.823 4.49804C27.8774 4.49804 27.1176 4.76958 26.7123 5.00718L27.0163 6.04243C27.489 5.77089 28.0125 5.61815 28.5528 5.60117C29.4984 5.60117 29.6503 6.12728 29.6503 6.46671V6.55157C27.6072 6.55157 26.324 7.26436 26.324 8.70692C26.324 9.58942 26.9825 10.421 28.1307 10.421C28.823 10.421 29.414 10.1495 29.7685 9.69125H29.8023C29.8023 9.69125 30.0387 10.6756 31.322 10.3022C31.2544 9.89491 31.2207 9.45365 31.2207 8.94452V6.90796H31.2038ZM0 2.75L1.55344 9.1312C1.80671 10.1664 2.24573 10.5568 3.529 10.3022L4.35637 6.90796C4.55899 6.0594 4.71096 5.4654 4.84604 4.59987H4.86293C4.96424 5.4654 5.09932 6.0594 5.26817 6.90796L5.77473 9.26697C5.96046 10.0816 6.43325 10.5907 7.69963 10.3022L9.6752 2.76697H8.07111L7.3957 6.02546C7.20997 6.97585 7.04111 7.72258 6.92292 8.58812C6.80472 7.72258 6.65275 7.00979 6.46702 6.09334L5.77473 2.76697H4.10309L3.34326 6.00849C3.14064 6.99282 2.93802 7.79047 2.80294 8.62206H2.78605C2.65097 7.84138 2.48212 6.84008 2.29638 5.88969L1.68852 2.75H0ZM12.6132 8.26567C12.6132 8.36749 12.6132 8.48629 12.5794 8.57115C12.4275 9.0124 12.0222 9.30091 11.5495 9.30091C11.1273 9.30091 10.8065 9.06332 10.8065 8.55418C10.8065 7.7735 11.6508 7.56984 12.6301 7.56984V8.26567H12.6132ZM14.1498 6.90796C14.1498 5.63512 13.6094 4.49804 11.769 4.49804C10.8234 4.49804 10.0636 4.76958 9.65831 5.00718L9.96225 6.04243C10.435 5.77089 10.9585 5.61815 11.4988 5.60117C12.4444 5.60117 12.5963 6.12728 12.5963 6.46671V6.55157C10.5532 6.55157 9.26996 7.26436 9.26996 8.70692C9.26996 9.58942 9.92848 10.421 11.0767 10.421C11.769 10.421 12.3599 10.1495 12.7145 9.69125H12.7483C12.7483 9.69125 12.9847 10.6756 14.268 10.3022C14.2004 9.89491 14.1667 9.45365 14.1667 8.94452V6.90796H14.1498ZM16.4968 8.68995V2.75H14.9771V10.2852H16.4968V8.68995ZM35.881 2.76697V8.31658C35.881 9.08029 36.0161 9.62337 36.3369 9.94582C36.607 10.2343 37.0461 10.421 37.5695 10.421C38.0254 10.421 38.4644 10.3362 38.667 10.2513L38.6501 9.04634C38.4982 9.09726 38.3124 9.11423 38.076 9.11423C37.5526 9.11423 37.3838 8.79178 37.3838 8.09595V5.99151H38.7177V4.54896H37.3838V2.75L35.881 2.76697ZM31.9467 4.63381V10.3022H33.5171V7.40013C33.5171 7.24739 33.5339 7.11162 33.5508 6.97585C33.669 6.36488 34.1249 5.97454 34.8003 5.97454C34.9861 5.97454 35.1043 5.99151 35.2562 6.00849V4.51501C35.138 4.49804 35.0198 4.48107 34.9185 4.48107C34.3275 4.48107 33.669 4.85444 33.382 5.68603H33.3482V4.61684L31.9467 4.63381ZM17.3917 4.63381V10.3022H18.9114V6.97585C18.9114 6.82311 18.9283 6.65339 18.9789 6.51762C19.0971 6.1782 19.4179 5.78786 19.9076 5.78786C20.5324 5.78786 20.8194 6.31397 20.8194 7.0607V10.2852H22.356V6.92493C22.356 6.77219 22.3728 6.58551 22.4235 6.46671C22.5417 6.0594 22.9301 5.77089 23.3522 5.77089C23.9769 5.77089 24.2809 6.28003 24.2809 7.1795V10.2852H25.8174V6.95888C25.8174 5.21084 24.9225 4.49804 23.9263 4.49804C23.4704 4.49804 23.1327 4.61684 22.8119 4.80352C22.5417 4.97324 22.3053 5.21084 22.1027 5.51632H22.0858C21.8325 4.88838 21.2078 4.48107 20.5324 4.49804C19.857 4.4641 19.2153 4.80352 18.8945 5.39752H18.8776V4.63381H17.3917Z" fill="#0071DC"/>
<path fill-rule="evenodd" clip-rule="evenodd" d="M46.9408 4.37859C47.2448 4.37859 47.498 4.20888 47.5318 4.02219L47.8189 0.610966C47.8189 0.27154 47.4305 0 46.9408 0C46.4511 0 46.0628 0.27154 46.0628 0.610966L46.3667 4.02219C46.3836 4.22585 46.6369 4.37859 46.9408 4.37859ZM45.1003 5.44778C45.2523 5.17624 45.2354 4.88773 45.0835 4.75196L42.2974 2.80026C42.0104 2.63055 41.5713 2.8342 41.3349 3.25849C41.0817 3.68277 41.1323 4.17493 41.4194 4.32768L44.5094 5.77024C44.6951 5.83812 44.9653 5.70235 45.1003 5.44778ZM48.7644 5.43081C48.9164 5.70235 49.1697 5.83812 49.3723 5.75326L52.4454 4.3107C52.7324 4.14099 52.7831 3.6658 52.5298 3.24151C52.2765 2.81723 51.8544 2.61358 51.5674 2.78329L48.7813 4.75196C48.6293 4.88773 48.6124 5.17624 48.7644 5.43081ZM46.9408 8.62141C47.2448 8.62141 47.498 8.79112 47.5318 8.97781L47.8189 12.389C47.8189 12.7285 47.4305 13 46.9408 13C46.4511 13 46.0628 12.7285 46.0628 12.389L46.3667 8.97781C46.3836 8.77415 46.6369 8.62141 46.9408 8.62141ZM48.7644 7.56919C48.9164 7.29765 49.1697 7.16188 49.3723 7.22976L52.4454 8.67232C52.7324 8.84204 52.7831 9.31723 52.5298 9.74151C52.2765 10.1658 51.8544 10.3695 51.5674 10.1997L48.7813 8.24804C48.6293 8.12924 48.6124 7.82376 48.7644 7.56919ZM45.1003 7.56919C45.2523 7.82376 45.2354 8.12924 45.0835 8.26501L42.2974 10.2167C42.0104 10.3864 41.5713 10.1828 41.3349 9.75849C41.0817 9.3342 41.1323 8.85901 41.4194 8.6893L44.5094 7.24674C44.6951 7.16188 44.9653 7.29765 45.1003 7.56919ZM53.1039 9.91123H53.1377C53.1714 9.91123 53.2052 9.89426 53.2052 9.87728C53.2052 9.84334 53.1883 9.84334 53.1546 9.84334H53.1208V9.91123H53.1039ZM53.1039 10.064H53.0364V9.79243H53.1377C53.1883 9.79243 53.2052 9.79243 53.239 9.8094C53.2559 9.82637 53.2728 9.84334 53.2728 9.86031C53.2728 9.89426 53.2559 9.91123 53.2221 9.9282C53.2559 9.94517 53.2728 9.96214 53.2728 9.99608C53.2728 10.047 53.2896 10.047 53.2896 10.064H53.2221C53.2052 10.047 53.2052 10.03 53.2052 9.99608C53.2052 9.96214 53.1883 9.96214 53.1546 9.96214H53.1208L53.1039 10.064ZM53.1377 9.70757C53.0195 9.70757 52.9351 9.8094 52.9351 9.9282C52.9351 10.047 53.0195 10.1488 53.1377 10.1488C53.2559 10.1488 53.3403 10.047 53.3403 9.9282C53.3572 9.8094 53.2559 9.70757 53.1377 9.70757ZM53.1377 9.65666C53.2896 9.65666 53.4078 9.77546 53.4078 9.9282C53.4078 10.0809 53.2896 10.1997 53.1377 10.1997C52.9857 10.1997 52.8506 10.0809 52.8506 9.9282C52.8675 9.77546 52.9857 9.65666 53.1377 9.65666Z" fill="#F3B53B"/>
</svg>
