<svg width="393" height="756" viewBox="0 0 393 756" fill="none" xmlns="http://www.w3.org/2000/svg">
<path d="M-67.5131 31.4571L-280.963 30.6802L-326 31.457L-326 99.2617L881 99.2618C879.635 76.4753 856.871 31.7679 776.732 35.2302C696.593 38.6926 649.808 31.1242 636.434 26.9072C631.248 25.7975 595.613 10.2612 570.501 18.3623C545.39 26.4633 529.709 25.6865 520.156 23.9109C510.602 22.1353 517.699 18.3622 515.788 15.6989C507.49 10.8161 493.77 15.4399 487.947 18.3622C483.671 21.5805 471.297 28.0169 456.011 28.0169C426.969 28.1057 426.441 20.5077 429.808 16.6976C434.162 12.3477 444.002 4.82351 425.441 3.93572C406.88 3.04793 395.689 6.37713 392.413 8.1527C385.044 9.48438 355.425 32.9301 314.895 16.6976C241.743 -12.5993 203.53 6.71002 163.678 18.3622C123.827 30.0144 97.3507 17.8073 74.6956 15.3659C52.0404 12.9245 58.9305 23.6357 58.3184 25.3535C57.5805 27.4246 45.4896 31.4571 32.9337 25.3535C20.3779 19.25 -17.0362 -4.3354 -23.0217 23.6889C-25.8528 36.9442 -59.8704 31.4571 -67.5131 31.4571Z" stroke="#114388"/>
<path d="M-17.3424 761.262H399.463V104.394L884 104.394C882.635 81.577 859.871 36.8091 779.732 40.2761C699.593 43.7432 652.808 36.1646 639.434 31.9419C638.57 31.7569 636.863 31.1717 634.502 30.3619C622.676 26.3072 594.433 16.6238 573.501 23.3854C548.39 31.4974 532.709 30.7195 523.156 28.9416C516.953 27.7872 517.769 25.7897 518.582 23.8006C519.021 22.726 519.458 21.6539 518.788 20.7184C510.491 15.829 496.77 20.4592 490.947 23.3854C486.671 26.608 474.297 33.0531 459.012 33.0531C429.969 33.142 429.442 25.5338 432.808 21.7186C433.207 21.3196 433.652 20.8941 434.116 20.4494C438.726 16.0384 445.302 9.74692 428.441 8.93935C409.88 8.05036 398.689 11.3841 395.414 13.1621C393.937 13.4292 391.567 14.5854 388.395 16.1328C375.737 22.3085 350.305 34.7161 317.895 21.7185C253.557 -4.08332 216.245 7.76468 181.076 18.9325C176.258 20.4624 171.48 21.9795 166.678 23.3854C136.869 32.1132 114.543 27.473 95.7023 23.5571C89.3556 22.238 83.4043 21.0011 77.6956 20.385C58.9661 18.3639 60.4298 25.3444 61.1536 28.7962C61.3053 29.5196 61.4244 30.0881 61.3184 30.3861C60.5805 32.46 48.4896 36.4979 35.9337 30.3861C34.5294 29.7026 32.8142 28.8 30.8667 27.7753C15.402 19.6379 -14.7057 3.79569 -20.0217 28.7193C-22.3608 39.6861 -45.9898 37.8408 -58.4418 36.8683C-61.0606 36.6638 -63.1851 36.4979 -64.5131 36.4979L-277.963 35.72L-323 36.4979L-323 104.394L-17.3424 104.394V761.262Z" fill="#114388"/>
</svg>
