<svg width="1440" height="684" viewBox="0 0 1440 684" fill="none" xmlns="http://www.w3.org/2000/svg">
<path d="M-189.134 112.182L-959.463 109.322L-1122 112.182L-1122 361.848L3234 361.848C3229.07 277.945 3146.92 113.327 2857.7 126.076C2568.48 138.824 2399.64 110.957 2351.37 95.4291C2332.66 91.3429 2204.05 34.1366 2113.43 63.9657C2022.8 93.7948 1966.21 90.9343 1931.73 84.3964C1897.25 77.8585 1922.87 63.9655 1915.97 54.1587C1886.02 36.1795 1836.51 53.2053 1815.49 63.9655C1800.06 75.8154 1755.4 99.5153 1700.24 99.5153C1595.43 99.8421 1593.52 71.8654 1605.67 57.8362C1621.39 41.819 1656.9 14.1142 1589.91 10.8452C1522.93 7.57627 1482.54 19.8348 1470.72 26.3727C1444.12 31.2761 1337.23 117.606 1190.96 57.8362C926.955 -50.0389 789.045 21.0606 645.224 63.9654C501.403 106.87 405.851 61.9223 324.089 52.9327C242.328 43.9431 267.194 83.3831 264.985 89.7083C262.322 97.3341 218.687 112.182 173.373 89.7083C128.06 67.2343 -6.96591 -19.6101 -28.5671 83.579C-38.7844 132.387 -161.552 112.182 -189.134 112.182Z" stroke="#114388"/>
<path fill-rule="evenodd" clip-rule="evenodd" d="M0 684L1440 684L1440 379.283L3114 379.283C3109.29 295.38 3030.64 130.762 2753.77 143.511C2476.9 156.259 2315.27 128.392 2269.06 112.864C2266.08 112.184 2260.18 110.032 2252.02 107.054C2211.16 92.1443 2113.59 56.537 2041.27 81.4007C1954.52 111.23 1900.34 108.369 1867.34 101.831C1845.91 97.5867 1848.73 90.2415 1851.54 82.9272C1853.05 78.9758 1854.56 75.0334 1852.25 71.5937C1823.58 53.6145 1776.18 70.6403 1756.06 81.4005C1741.29 93.2504 1698.54 116.95 1645.73 116.95C1545.39 117.277 1543.57 89.3004 1555.2 75.2712C1556.58 73.8043 1558.11 72.2394 1559.72 70.6042C1575.65 54.3844 1598.36 31.2497 1540.11 28.2802C1475.99 25.0113 1437.32 37.2698 1426.01 43.8077C1420.91 44.7901 1412.72 49.0415 1401.76 54.7315C1358.03 77.4405 1270.16 123.065 1158.19 75.2712C935.916 -19.6064 807.01 23.9607 685.504 65.0265C668.859 70.6523 652.353 76.231 635.764 81.4004C532.777 113.494 455.644 96.4312 390.552 82.0318C368.625 77.1812 348.064 72.6329 328.342 70.3677C263.634 62.9358 268.691 88.6041 271.192 101.297C271.716 103.957 272.128 106.047 271.761 107.143C269.212 114.769 227.44 129.617 184.061 107.143C179.21 104.63 173.284 101.311 166.556 97.543C113.127 67.6206 9.10992 9.36589 -9.25629 101.014C-17.3376 141.341 -98.9724 134.555 -141.992 130.979C-151.04 130.227 -158.379 129.617 -162.967 129.617L-900.403 126.757L-1056 129.617L-1056 379.283L2.75363e-05 379.283L0 684Z" fill="#114388"/>
</svg>
