<svg width="14" height="14" viewBox="0 0 14 14" fill="none" xmlns="http://www.w3.org/2000/svg">
<path d="M6.99967 3.66927C7.36786 3.66927 7.66634 3.96775 7.66634 4.33594V6.33594H9.66634C10.0345 6.33594 10.333 6.63441 10.333 7.0026C10.333 7.37079 10.0345 7.66927 9.66634 7.66927H7.66634V9.66927C7.66634 10.0375 7.36786 10.3359 6.99967 10.3359C6.63148 10.3359 6.33301 10.0375 6.33301 9.66927V7.66927H4.33301C3.96482 7.66927 3.66634 7.37079 3.66634 7.0026C3.66634 6.63441 3.96482 6.33594 4.33301 6.33594H6.33301V4.33594C6.33301 3.96775 6.63148 3.66927 6.99967 3.66927Z" fill="#192839"/>
<path fill-rule="evenodd" clip-rule="evenodd" d="M0.333008 2.33594C0.333008 1.23137 1.22844 0.335938 2.33301 0.335938H11.6663C12.7709 0.335938 13.6663 1.23137 13.6663 2.33594V11.6693C13.6663 12.7738 12.7709 13.6693 11.6663 13.6693H2.33301C1.22844 13.6693 0.333008 12.7738 0.333008 11.6693V2.33594ZM2.33301 1.66927C1.96482 1.66927 1.66634 1.96775 1.66634 2.33594V11.6693C1.66634 12.0375 1.96482 12.3359 2.33301 12.3359H11.6663C12.0345 12.3359 12.333 12.0375 12.333 11.6693V2.33594C12.333 1.96775 12.0345 1.66927 11.6663 1.66927H2.33301Z" fill="#192839"/>
</svg>
