<svg width="17" height="20" viewBox="0 0 17 20" fill="none" xmlns="http://www.w3.org/2000/svg">
<path d="M7.91009 1.08002C8.23553 0.754578 8.76317 0.754578 9.0886 1.08002L12.4219 4.41335C12.7474 4.73879 12.7474 5.26642 12.4219 5.59186C12.0965 5.9173 11.5689 5.9173 11.2434 5.59186L9.33268 3.68112V13.3359C9.33268 13.7962 8.95959 14.1693 8.49935 14.1693C8.03911 14.1693 7.66602 13.7962 7.66602 13.3359V3.68112L5.75527 5.59186C5.42983 5.9173 4.9022 5.9173 4.57676 5.59186C4.25132 5.26642 4.25132 4.73879 4.57676 4.41335L7.91009 1.08002Z" fill="#305EFF"/>
<path d="M0.999349 13.3359C1.45959 13.3359 1.83268 13.709 1.83268 14.1693V16.6693C1.83268 17.1295 2.20578 17.5026 2.66602 17.5026H14.3327C14.7929 17.5026 15.166 17.1295 15.166 16.6693V14.1693C15.166 13.709 15.5391 13.3359 15.9993 13.3359C16.4596 13.3359 16.8327 13.709 16.8327 14.1693V16.6693C16.8327 18.05 15.7134 19.1693 14.3327 19.1693H2.66602C1.2853 19.1693 0.166016 18.05 0.166016 16.6693V14.1693C0.166016 13.709 0.539112 13.3359 0.999349 13.3359Z" fill="#305EFF"/>
</svg>
