<svg width="12" height="12" viewBox="0 0 12 12" fill="none" xmlns="http://www.w3.org/2000/svg">
<path d="M6.6665 1.33073C6.6665 0.962539 6.36803 0.664062 5.99984 0.664062C5.63165 0.664062 5.33317 0.962539 5.33317 1.33073V5.33073H1.33317C0.964981 5.33073 0.666504 5.62921 0.666504 5.9974C0.666504 6.36559 0.964981 6.66406 1.33317 6.66406H5.33317V10.6641C5.33317 11.0323 5.63165 11.3307 5.99984 11.3307C6.36803 11.3307 6.6665 11.0323 6.6665 10.6641V6.66406H10.6665C11.0347 6.66406 11.3332 6.36559 11.3332 5.9974C11.3332 5.62921 11.0347 5.33073 10.6665 5.33073H6.6665V1.33073Z" fill="#192839"/>
</svg>
