<svg width="16" height="10" viewBox="0 0 16 10" fill="none" xmlns="http://www.w3.org/2000/svg">
<path d="M11.3333 0.335938C10.9651 0.335938 10.6667 0.634414 10.6667 1.0026C10.6667 1.37079 10.9651 1.66927 11.3333 1.66927H13.7239L9 6.39313L6.13807 3.5312C5.87772 3.27085 5.45561 3.27085 5.19526 3.5312L0.195262 8.5312C-0.0650874 8.79155 -0.0650874 9.21366 0.195262 9.47401C0.455612 9.73436 0.877722 9.73436 1.13807 9.47401L5.66667 4.94541L8.5286 7.80734C8.78895 8.06769 9.21106 8.06769 9.47141 7.80734L14.6667 2.61208V5.0026C14.6667 5.37079 14.9651 5.66927 15.3333 5.66927C15.7015 5.66927 16 5.37079 16 5.0026V1.0026C16 0.634414 15.7015 0.335938 15.3333 0.335938H11.3333Z" fill="#768EA7"/>
</svg>
