<svg width="118" height="12" viewBox="0 0 118 12" fill="none" xmlns="http://www.w3.org/2000/svg">
<g clip-path="url(#clip0_1086_22797)">
<path d="M27.9226 6.78332C27.6782 6.78332 27.4338 6.79473 27.201 6.79473H26.0022C25.8509 6.79473 25.6879 6.79473 25.5366 6.79473C25.3853 6.79473 25.2224 6.79473 25.0711 6.79473V7.01167C25.0711 7.39987 24.9896 7.73099 24.8266 8.01643C24.6637 8.30187 24.4193 8.51881 24.0934 8.66724C23.7675 8.81567 23.3369 8.89559 22.8247 8.89559C22.4872 8.89559 22.173 8.86134 21.882 8.80425C21.591 8.73574 21.3466 8.62157 21.1487 8.46172C20.9509 8.30187 20.7763 8.08494 20.6366 7.83375C20.4969 7.58256 20.3922 7.26286 20.3224 6.89749C20.2525 6.53213 20.2176 6.10967 20.2176 5.61871C20.2176 5.12775 20.2525 4.73955 20.3107 4.40844C20.3689 4.07732 20.4737 3.79188 20.6133 3.55211C20.753 3.31234 20.916 3.12965 21.1138 2.98122C21.3117 2.84421 21.5445 2.73003 21.8122 2.67295C22.0798 2.60444 22.3825 2.57019 22.7316 2.55877C23.2205 2.55877 23.6395 2.61586 23.9886 2.73003C24.3378 2.84421 24.5939 3.03831 24.7684 3.32375C24.943 3.6092 25.0245 3.98598 25.0245 4.46552V4.67104C25.1758 4.67104 25.3271 4.67104 25.4668 4.67104C25.6181 4.67104 25.7694 4.67104 25.9323 4.67104H27.1312C27.3756 4.67104 27.6084 4.67104 27.8528 4.68246C27.8528 4.60254 27.8644 4.52261 27.8644 4.44269C27.8644 4.36277 27.8644 4.28284 27.8644 4.20292C27.8644 4.12299 27.8644 4.06591 27.8644 3.9974C27.8644 3.56353 27.7946 3.14107 27.6665 2.74145C27.5269 2.34183 27.3407 1.97647 27.0962 1.65677C26.8518 1.32566 26.5259 1.04021 26.1302 0.800443C25.7345 0.549254 25.2689 0.366571 24.7103 0.240976C24.1632 0.115381 23.5347 0.046875 22.8364 0.046875C22.0798 0.046875 21.4048 0.126799 20.8228 0.286647C20.2409 0.446494 19.7171 0.674848 19.2632 0.994544C18.8093 1.31424 18.4369 1.69102 18.1342 2.15915C17.8316 2.62727 17.6105 3.15249 17.4475 3.74621C17.2846 4.33993 17.2031 5.00216 17.2031 5.73289C17.2031 6.52071 17.2846 7.22861 17.4592 7.85658C17.6338 8.48455 17.8665 9.02119 18.1808 9.47789C18.495 9.9346 18.8791 10.3228 19.3447 10.6197C19.7986 10.9279 20.3224 11.1449 20.9043 11.2819C21.4863 11.4189 22.1264 11.4874 22.8364 11.4874C23.4998 11.4874 24.0934 11.4303 24.6404 11.3047C25.1874 11.1791 25.653 10.9964 26.0604 10.7453C26.4677 10.4941 26.8053 10.1972 27.0962 9.85468C27.3872 9.51215 27.5967 9.11253 27.7247 8.67866C27.8644 8.24478 27.9226 7.76524 27.9226 7.25144V7.0916C27.9226 7.0916 27.9226 7.00025 27.911 6.95458C27.911 6.90891 27.911 6.86324 27.911 6.81757L27.9226 6.78332Z" fill="black"/>
<path d="M39.8547 8.14203C39.6336 7.52547 39.4124 6.8975 39.1796 6.24669C38.9469 5.59588 38.7257 4.96791 38.5162 4.33994C38.3067 3.71196 38.1089 3.14108 37.9226 2.60445C37.7364 2.06781 37.5851 1.58827 37.4454 1.17723C37.3058 0.766197 37.201 0.435084 37.1079 0.195312H32.6036C32.5105 0.412249 32.4058 0.731944 32.2777 1.1544C32.1497 1.57685 31.9984 2.0564 31.8122 2.61586C31.626 3.17533 31.4397 3.75763 31.2186 4.37419C31.0091 4.99075 30.788 5.63014 30.5668 6.28094C30.3457 6.93175 30.1245 7.55973 29.915 8.17628C29.7055 8.79284 29.496 9.36372 29.3098 9.88894C29.1236 10.4256 28.9374 10.8937 28.7744 11.2933H31.8704C31.9286 11.0764 32.0217 10.7567 32.1381 10.3228C32.2428 9.94602 32.3592 9.52357 32.4989 9.07828C32.6967 9.07828 32.883 9.07828 33.0808 9.07828H36.4794C36.6889 9.07828 36.8984 9.07828 37.1079 9.07828C37.1428 9.21529 37.1894 9.36372 37.2243 9.48932C37.3407 9.91177 37.4454 10.2771 37.5269 10.5854C37.62 10.8937 37.6666 11.1335 37.6899 11.2933H41.0186C40.8557 10.8823 40.6811 10.4027 40.4832 9.8661C40.2853 9.32947 40.0758 8.74717 39.8547 8.13061V8.14203ZM35.6065 7.01168C35.3039 7.01168 35.0245 7.01168 34.7685 7.01168H33.9537C33.6744 7.01168 33.3951 7.01168 33.1157 7.00026C33.2787 6.47505 33.4416 5.93841 33.6046 5.40178C33.7908 4.80806 33.9537 4.26001 34.1051 3.74622C34.2331 3.32376 34.3495 2.94698 34.4542 2.6387C34.559 2.319 34.6521 2.04498 34.7219 1.80521C34.7452 1.72528 34.7685 1.6682 34.7918 1.59969C34.815 1.67961 34.8383 1.7367 34.8616 1.81663C34.9314 2.0564 35.0129 2.33042 35.106 2.65012C35.1991 2.96981 35.3271 3.31234 35.4668 3.70055C35.6065 4.13442 35.7461 4.60254 35.8975 5.10492C36.0488 5.6073 36.2001 6.10968 36.363 6.63489C36.3979 6.76049 36.4328 6.87466 36.4794 7.00026C36.1768 7.00026 35.8742 7.00026 35.5948 7.01168H35.6065Z" fill="black"/>
<path d="M52.3992 9.92319C52.3061 9.63775 52.2129 9.32947 52.0966 9.00977C51.9336 8.56448 51.7707 8.21054 51.5844 7.94793C51.3982 7.68532 51.1771 7.4798 50.9094 7.34279C50.6417 7.20578 50.2925 7.10302 49.8735 7.05735C49.792 7.05735 49.6989 7.03451 49.6175 7.0231V6.94317C49.792 6.90892 49.9783 6.88608 50.1296 6.84041C50.6184 6.7034 51.0258 6.49788 51.3284 6.21244C51.631 5.927 51.8638 5.58447 52.0034 5.16201C52.1548 4.73956 52.2246 4.23718 52.2246 3.64346C52.2246 3.08399 52.1198 2.59303 51.922 2.15916C51.7241 1.7367 51.4331 1.37134 51.0607 1.07448C50.6882 0.777615 50.2343 0.560679 49.6989 0.412249C49.1635 0.263819 48.5583 0.195312 47.8833 0.195312H42.25C42.2733 0.994551 42.2849 1.82804 42.2849 2.69579C42.2849 3.56353 42.2849 4.57971 42.2849 5.75573C42.2849 6.54355 42.2849 7.26287 42.2733 7.90226C42.2616 8.54165 42.2616 9.13537 42.2616 9.68342C42.2616 10.2315 42.2616 10.7795 42.25 11.3161H45.2878C45.2412 10.8024 45.2179 10.1858 45.183 9.45506C45.1597 8.94127 45.1481 8.3818 45.1365 7.81092C45.311 7.81092 45.4856 7.81092 45.6137 7.81092C45.7882 7.81092 45.9512 7.81092 46.1025 7.81092H47.3479C47.5574 7.81092 47.7436 7.82233 47.9065 7.84517C48.0695 7.868 48.1975 7.92509 48.3139 8.00502C48.4303 8.08494 48.535 8.21054 48.6281 8.37038C48.7213 8.53023 48.8144 8.73575 48.8958 8.97552C48.9773 9.22671 49.0704 9.52357 49.1752 9.87752C49.2916 10.3114 49.3847 10.6311 49.4545 10.8366C49.5244 11.0421 49.5942 11.1677 49.6757 11.2362C49.7571 11.3047 49.8735 11.3276 50.0365 11.3276H52.8415C52.7949 11.1677 52.7251 10.9736 52.6436 10.7338C52.5621 10.4941 52.469 10.2315 52.3875 9.94602L52.3992 9.92319ZM47.6039 5.63014C47.2897 5.63014 47.0103 5.63014 46.731 5.63014C46.4633 5.63014 46.2072 5.63014 45.9628 5.61872C45.7184 5.61872 45.5205 5.6073 45.3343 5.59588C45.2412 5.59588 45.183 5.59588 45.1132 5.59588C45.1132 5.17343 45.1132 4.75097 45.1132 4.3171C45.1132 3.7348 45.1132 3.1525 45.1132 2.57019C45.1947 2.57019 45.2645 2.57019 45.3576 2.57019C45.5322 2.57019 45.7184 2.55878 45.9046 2.54736C46.0909 2.53594 46.2771 2.53594 46.4517 2.52452C46.6262 2.52452 46.7892 2.52452 46.9405 2.52452H47.3246C47.6738 2.52452 47.9764 2.54736 48.2324 2.60445C48.4885 2.66153 48.7096 2.74146 48.8842 2.84422C49.0704 2.94698 49.1985 3.10683 49.2799 3.31234C49.3614 3.51786 49.3963 3.78047 49.3963 4.10016C49.3963 4.41986 49.3265 4.71672 49.1985 4.95649C49.0704 5.19626 48.8726 5.36753 48.5932 5.48171C48.3139 5.59588 47.9764 5.66439 47.5806 5.66439L47.6039 5.63014Z" fill="black"/>
<path d="M63.4675 0.194108H54.6219C54.6219 0.525222 54.6219 0.902005 54.6219 1.31304C54.6219 1.72408 54.6219 2.15795 54.6335 2.61466C54.6335 3.07137 54.6335 3.56233 54.6335 4.08754V7.92389C54.6335 8.58612 54.6335 9.19125 54.6335 9.7393C54.6335 10.2874 54.6103 10.8126 54.5986 11.3149H63.4675C63.4675 11.1779 63.4675 10.9838 63.4675 10.7326C63.4675 10.4815 63.4675 10.2759 63.4675 10.1161C63.4675 9.88773 63.4675 9.63654 63.4675 9.37394C63.4675 9.11133 63.4675 8.90581 63.4675 8.7688C63.0369 8.7688 62.5946 8.7688 62.1407 8.7688C61.6868 8.7688 61.2328 8.7688 60.7789 8.7688C60.325 8.7688 59.8711 8.7688 59.4288 8.7688C58.9865 8.7688 58.5675 8.7688 58.1718 8.7688H57.4967V6.73645C57.7877 6.72503 58.0787 6.73645 58.3697 6.73645C58.8003 6.73645 59.2426 6.73645 59.6732 6.74787C60.1155 6.74787 60.5461 6.74787 60.9651 6.74787C61.3841 6.74787 61.8031 6.74787 62.1989 6.74787C62.5946 6.74787 62.967 6.75928 63.2929 6.7707V6.0628C63.2929 5.77736 63.2929 5.4805 63.2929 5.18364C63.2929 4.88678 63.2929 4.65843 63.2929 4.51C62.9554 4.51 62.583 4.51 62.1872 4.51C61.7915 4.51 61.3725 4.51 60.9535 4.51H57.4735V3.63084C57.4735 3.27689 57.4735 2.93436 57.4735 2.59182C57.6946 2.59182 57.8925 2.59182 58.1485 2.59182H59.3822C59.8129 2.59182 60.2552 2.59182 60.7207 2.59182C61.1863 2.59182 61.6402 2.59182 62.0941 2.59182C62.548 2.59182 63.002 2.59183 63.4442 2.60324C63.4442 2.46623 63.4442 2.26071 63.4442 1.98669C63.4442 1.71266 63.4442 1.47289 63.4442 1.27879C63.4442 1.10752 63.4442 0.913423 63.4442 0.685069C63.4442 0.456715 63.4442 0.274032 63.4442 0.148438L63.4675 0.194108Z" fill="black"/>
<path d="M74.6423 0.194108H65.7967C65.7967 0.525222 65.7967 0.902005 65.7967 1.31304C65.7967 1.72408 65.7967 2.15795 65.8084 2.61466C65.8084 3.07137 65.8084 3.56233 65.8084 4.08754V7.92389C65.8084 8.58612 65.8084 9.19125 65.8084 9.7393C65.8084 10.2874 65.7851 10.8126 65.7734 11.3149H74.6423C74.6423 11.1779 74.6423 10.9838 74.6423 10.7326C74.6423 10.4815 74.6423 10.2759 74.6423 10.1161C74.6423 9.88773 74.6423 9.63654 74.6423 9.37394C74.6423 9.11133 74.6423 8.90581 74.6423 8.7688C74.2117 8.7688 73.7694 8.7688 73.3155 8.7688C72.8616 8.7688 72.4076 8.7688 71.9537 8.7688C71.4998 8.7688 71.0459 8.7688 70.6036 8.7688C70.1613 8.7688 69.7423 8.7688 69.3466 8.7688H68.6715V6.73645C68.9625 6.72503 69.2535 6.73645 69.5445 6.73645C69.9751 6.73645 70.4174 6.73645 70.848 6.74787C71.2903 6.74787 71.7209 6.74787 72.1399 6.74787C72.5589 6.74787 72.978 6.74787 73.3737 6.74787C73.7694 6.74787 74.1418 6.75928 74.4677 6.7707V6.0628C74.4677 5.77736 74.4677 5.4805 74.4677 5.18364C74.4677 4.88678 74.4677 4.65843 74.4677 4.51C74.1302 4.51 73.7578 4.51 73.362 4.51C72.9663 4.51 72.5473 4.51 72.1283 4.51H68.6483V3.63084C68.6483 3.27689 68.6483 2.93436 68.6483 2.59182C68.8694 2.59182 69.0673 2.59182 69.3233 2.59182H70.557C70.9877 2.59182 71.43 2.59182 71.8955 2.59182C72.3611 2.59182 72.815 2.59182 73.2689 2.59182C73.7228 2.59182 74.1768 2.59183 74.619 2.60324C74.619 2.46623 74.619 2.26071 74.619 1.98669C74.619 1.71266 74.619 1.47289 74.619 1.27879C74.619 1.10752 74.619 0.913423 74.619 0.685069C74.619 0.456715 74.619 0.274032 74.619 0.148438L74.6423 0.194108Z" fill="black"/>
<path d="M87.0945 9.92319C87.0014 9.63775 86.9083 9.32947 86.7919 9.00977C86.6289 8.56448 86.466 8.21054 86.2798 7.94793C86.0935 7.68532 85.8724 7.4798 85.6047 7.34279C85.337 7.20578 84.9878 7.10302 84.5688 7.05735C84.4874 7.05735 84.3942 7.03451 84.3128 7.0231V6.94317C84.4874 6.90892 84.6736 6.88608 84.8249 6.84041C85.3137 6.7034 85.7211 6.49788 86.0237 6.21244C86.3263 5.927 86.5591 5.58447 86.6988 5.16201C86.8501 4.73956 86.9199 4.23718 86.9199 3.64346C86.9199 3.08399 86.8151 2.59303 86.6173 2.15916C86.4194 1.7367 86.1284 1.37134 85.756 1.07448C85.3836 0.777615 84.9296 0.560679 84.3942 0.412249C83.8589 0.263819 83.2536 0.195312 82.5786 0.195312H76.9453C76.9686 0.994551 76.9802 1.82804 76.9802 2.69579C76.9802 3.56353 76.9802 4.57971 76.9802 5.75573C76.9802 6.54355 76.9802 7.26287 76.9686 7.90226C76.9569 8.54165 76.957 9.13537 76.957 9.68342C76.957 10.2315 76.957 10.7795 76.9453 11.3161H79.9831C79.9365 10.8024 79.9132 10.1858 79.8783 9.45506C79.855 8.94127 79.8434 8.3818 79.8318 7.81092C80.0064 7.81092 80.1809 7.81092 80.309 7.81092C80.4836 7.81092 80.6465 7.81092 80.7978 7.81092H82.0432C82.2527 7.81092 82.4389 7.82233 82.6018 7.84517C82.7648 7.868 82.8928 7.92509 83.0092 8.00502C83.1256 8.08494 83.2303 8.21054 83.3235 8.37038C83.4166 8.53023 83.5097 8.73575 83.5912 8.97552C83.6726 9.22671 83.7657 9.52357 83.8705 9.87752C83.9869 10.3114 84.08 10.6311 84.1498 10.8366C84.2197 11.0421 84.2895 11.1677 84.371 11.2362C84.4524 11.3047 84.5688 11.3276 84.7318 11.3276H87.5368C87.4902 11.1677 87.4204 10.9736 87.3389 10.7338C87.2574 10.4941 87.1643 10.2315 87.0828 9.94602L87.0945 9.92319ZM82.2992 5.63014C81.985 5.63014 81.7056 5.63014 81.4263 5.63014C81.1586 5.63014 80.9026 5.63014 80.6581 5.61872C80.4137 5.61872 80.2159 5.6073 80.0296 5.59588C79.9365 5.59588 79.8783 5.59588 79.8085 5.59588C79.8085 5.17343 79.8085 4.75097 79.8085 4.3171C79.8085 3.7348 79.8085 3.1525 79.8085 2.57019C79.89 2.57019 79.9598 2.57019 80.0529 2.57019C80.2275 2.57019 80.4137 2.55878 80.5999 2.54736C80.7862 2.53594 80.9724 2.53594 81.147 2.52452C81.3216 2.52452 81.4845 2.52452 81.6358 2.52452H82.0199C82.3691 2.52452 82.6717 2.54736 82.9277 2.60445C83.1838 2.66153 83.4049 2.74146 83.5795 2.84422C83.7657 2.94698 83.8938 3.10683 83.9752 3.31234C84.0567 3.51786 84.0916 3.78047 84.0916 4.10016C84.0916 4.41986 84.0218 4.71672 83.8938 4.95649C83.7657 5.19626 83.5679 5.36753 83.2885 5.48171C83.0092 5.59588 82.6717 5.66439 82.276 5.66439L82.2992 5.63014Z" fill="black"/>
<path d="M97.6729 8.52663C97.3587 8.00141 97.0444 7.45336 96.7069 6.8939C96.4857 6.51711 96.2646 6.12891 96.0435 5.75213C96.3694 5.15841 96.6836 4.5761 97.0095 4.00522C97.4285 3.26307 97.8242 2.55517 98.2083 1.90436C98.5924 1.25355 98.9416 0.682668 99.2558 0.203125H95.9387C95.8107 0.511403 95.6827 0.796845 95.5663 1.08229C95.4499 1.36773 95.3102 1.65317 95.1589 1.96145C95.0076 2.26973 94.833 2.62368 94.6235 3.00046C94.4606 3.27449 94.3325 3.52568 94.2394 3.74261C94.1463 3.95955 94.0532 4.17648 93.9834 4.382C93.9834 4.40484 93.9717 4.42767 93.9601 4.45051H93.9485C93.9485 4.45051 93.9368 4.40484 93.9252 4.39342C93.8321 4.1879 93.7273 3.97097 93.6226 3.74261C93.5178 3.51426 93.3898 3.26307 93.2385 3.00046C92.9824 2.5095 92.738 2.02996 92.5052 1.56183C92.2725 1.09371 92.063 0.648415 91.8767 0.203125H88.3152C88.6295 0.728339 88.9786 1.32206 89.3511 1.97287C89.7235 2.63509 90.1192 3.32016 90.5266 4.05089C90.8176 4.5761 91.1202 5.11274 91.4228 5.66079C91.2017 6.03757 90.9922 6.42577 90.771 6.81397C90.4451 7.39628 90.1192 7.96716 89.7934 8.52663C89.4675 9.08609 89.1649 9.59989 88.8855 10.0794C88.6062 10.559 88.3618 10.97 88.1406 11.3125H91.5159C91.6789 10.9129 91.8534 10.5019 92.0513 10.1137C92.2492 9.72548 92.4703 9.25736 92.7264 8.72073C92.8777 8.4467 93.0173 8.17268 93.1337 7.92149C93.2501 7.6703 93.3782 7.40769 93.4945 7.14509C93.5178 7.07658 93.5295 7.01949 93.5527 6.9624H93.5993C93.5993 6.9624 93.6342 7.06516 93.6575 7.12225C93.7506 7.38486 93.867 7.63605 93.995 7.89865C94.123 8.16126 94.2627 8.42387 94.414 8.70931C94.5886 9.06326 94.7399 9.38295 94.8912 9.67981C95.0425 9.96526 95.1822 10.2507 95.3102 10.5133C95.4382 10.7759 95.5663 11.0385 95.6943 11.324H99.3257C99.0812 10.9586 98.8252 10.5361 98.5458 10.0566C98.2665 9.57706 97.9639 9.07468 97.6613 8.54946L97.6729 8.52663Z" fill="black"/>
<path d="M101.212 8.0625C100.723 8.0625 100.351 8.19951 100.083 8.47354C99.8155 8.74756 99.6875 9.1586 99.6875 9.70665C99.6875 10.2775 99.8155 10.7114 100.083 10.9968C100.351 11.2823 100.723 11.4307 101.212 11.4307C101.701 11.4307 102.108 11.2937 102.364 10.9968C102.621 10.7 102.749 10.2775 102.749 9.70665C102.749 9.1586 102.621 8.75898 102.353 8.47354C102.085 8.19951 101.713 8.0625 101.212 8.0625Z" fill="black"/>
<path d="M112.363 10.2093C112.352 9.96956 112.34 9.71837 112.328 9.44435C112.328 9.17032 112.317 8.90771 112.317 8.65652C112.317 8.31399 112.317 7.98288 112.317 7.65177C112.317 7.33207 112.317 7.01238 112.34 6.68126C112.363 6.35015 112.352 6.00762 112.352 5.63083C112.352 5.11704 112.27 4.64891 112.119 4.21504C111.968 3.78117 111.723 3.4158 111.386 3.11894C111.048 2.82208 110.606 2.58231 110.059 2.41104C109.512 2.23978 108.848 2.14844 108.08 2.14844C107.475 2.14844 106.939 2.21694 106.462 2.34254C105.997 2.47955 105.589 2.65082 105.263 2.85633C104.926 3.07327 104.658 3.33588 104.449 3.64416C104.239 3.95243 104.088 4.30638 104.006 4.68317C103.925 5.05995 103.902 5.47099 103.937 5.89344C104.053 5.87061 104.193 5.85919 104.356 5.83635C104.519 5.82494 104.682 5.81352 104.844 5.82494C105.019 5.82494 105.194 5.82494 105.38 5.82494H105.985C106.183 5.82494 106.381 5.82494 106.544 5.83635C106.544 5.58516 106.544 5.35681 106.602 5.17413C106.649 4.99144 106.742 4.8316 106.881 4.71742C107.021 4.60324 107.184 4.52332 107.393 4.45481C107.603 4.38631 107.836 4.36347 108.103 4.36347C108.371 4.36347 108.616 4.39772 108.802 4.45481C108.988 4.52332 109.139 4.60324 109.256 4.71742C109.372 4.82018 109.465 4.96861 109.512 5.12846C109.57 5.29972 109.593 5.4824 109.593 5.68792C109.593 5.89344 109.593 6.09896 109.593 6.32731C109.593 6.36157 109.593 6.40724 109.593 6.44149C109.372 6.39582 109.116 6.37298 108.802 6.35015C108.406 6.32731 107.987 6.3159 107.545 6.3159C106.683 6.3159 105.973 6.40724 105.38 6.60134C104.786 6.79544 104.367 7.06946 104.088 7.45767C103.809 7.83445 103.669 8.33683 103.669 8.9648C103.669 9.44435 103.727 9.83255 103.855 10.1408C103.983 10.4491 104.169 10.7003 104.414 10.8944C104.658 11.0885 104.973 11.2255 105.345 11.3054C105.717 11.3854 106.136 11.431 106.625 11.431C107.242 11.431 107.766 11.3511 108.208 11.1798C108.65 11.0086 109 10.7574 109.256 10.4034C109.384 10.2207 109.488 10.0266 109.57 9.79829H109.64C109.64 9.93531 109.628 10.0723 109.628 10.1979C109.628 10.3806 109.628 10.529 109.628 10.6546C109.628 10.8031 109.628 10.9172 109.651 10.9972C109.675 11.0771 109.698 11.1456 109.744 11.1798C109.791 11.2255 109.849 11.2483 109.919 11.2598C109.989 11.2712 110.094 11.2826 110.222 11.2826H112.503C112.468 11.1798 112.445 11.0314 112.41 10.8373C112.375 10.6432 112.363 10.4263 112.34 10.1865L112.363 10.2093ZM109.069 9.02189C108.895 9.18174 108.697 9.29592 108.453 9.38726C108.208 9.46718 107.952 9.51285 107.673 9.51285C107.428 9.51285 107.219 9.49002 107.044 9.45576C106.87 9.42151 106.73 9.36442 106.625 9.29592C106.52 9.22741 106.439 9.13607 106.392 9.02189C106.346 8.90771 106.323 8.78212 106.323 8.63369C106.323 8.45101 106.358 8.30258 106.416 8.17698C106.486 8.05139 106.579 7.94863 106.707 7.85729C106.835 7.76594 106.998 7.70886 107.207 7.6746C107.417 7.64035 107.649 7.61751 107.917 7.61751C108.243 7.61751 108.569 7.61751 108.883 7.61751C109.128 7.61751 109.349 7.65177 109.582 7.68602C109.582 7.97146 109.535 8.21123 109.454 8.43959C109.36 8.66794 109.232 8.86204 109.069 9.02189Z" fill="black"/>
<path d="M117.569 0.525214C117.545 0.456708 117.499 0.376784 117.429 0.308278C117.359 0.239772 117.266 0.182683 117.15 0.137012C117.033 0.0913416 116.882 0.0570885 116.696 0.0342531C116.51 0.0114177 116.277 0 115.986 0C115.637 0 115.357 0.0228354 115.148 0.0570885C114.938 0.0913416 114.775 0.14843 114.659 0.216936C114.543 0.285442 114.461 0.365366 114.415 0.456708C114.368 0.548049 114.345 0.650809 114.345 0.764986C114.345 0.867745 114.356 0.959087 114.38 1.03901C114.403 1.11893 114.449 1.19886 114.508 1.26736C114.566 1.33587 114.659 1.39296 114.787 1.45005C114.915 1.49572 115.078 1.54139 115.276 1.56422C115.474 1.59848 115.706 1.6099 115.974 1.6099C116.335 1.6099 116.614 1.58706 116.835 1.54139C117.045 1.49572 117.208 1.43863 117.324 1.35871C117.429 1.2902 117.511 1.19886 117.545 1.0961C117.58 0.99334 117.604 0.879163 117.604 0.764986C117.604 0.673644 117.592 0.59372 117.569 0.525214Z" fill="black"/>
<path d="M117.31 5.48301C117.31 5.09481 117.31 4.72945 117.31 4.3755C117.31 4.02155 117.31 3.67902 117.322 3.34791C117.322 3.01679 117.322 2.67426 117.345 2.32031H114.575C114.575 2.65143 114.575 2.99396 114.575 3.33649C114.575 3.67902 114.575 4.02155 114.587 4.36408C114.598 4.70661 114.587 5.07198 114.587 5.44876V9.10242C114.587 9.46779 114.587 9.84457 114.587 10.2214C114.587 10.5981 114.575 10.9521 114.563 11.306H117.334C117.334 10.9635 117.322 10.621 117.31 10.2784C117.31 9.94733 117.31 9.59339 117.299 9.23944C117.299 8.88549 117.299 8.49729 117.299 8.09767V5.48301H117.31Z" fill="black"/>
<path d="M6.71567 3.95887L0 10.5469L1.4814 12.0001L8.19706 5.41211L6.71567 3.95887Z" fill="#231F20"/>
<path d="M8.42878 11.8295H6.33377V5.80098H0.176758V3.73438H8.42878V11.8295Z" fill="#231F20"/>
<path d="M12.0704 8.25561H9.96373V2.22706H3.81836V0.171875H12.0704V8.25561Z" fill="#48A0FF"/>
</g>
<defs>
<clipPath id="clip0_1086_22797">
<rect width="117.6" height="12" fill="white"/>
</clipPath>
</defs>
</svg>
