<svg width="14" height="14" viewBox="0 0 14 14" fill="none" xmlns="http://www.w3.org/2000/svg">
<path d="M10.5283 4.14614C10.3329 3.95105 10.0163 3.95132 9.82122 4.14676L5.202 8.773L4.06977 7.51459L4.00366 7.45317C3.81616 7.30811 3.5461 7.3132 3.36364 7.4774C3.15838 7.66212 3.14173 7.97826 3.32645 8.18353L4.8122 9.83447L4.88091 9.89791C5.07597 10.0468 5.35771 10.0336 5.53772 9.85324L10.5289 4.85324L10.5867 4.78394C10.7216 4.58896 10.702 4.31955 10.5283 4.14614Z" fill="#64748B"/>
<path fill-rule="evenodd" clip-rule="evenodd" d="M7 0C10.866 0 14 3.13401 14 7C14 10.866 10.866 14 7 14C3.13401 14 0 10.866 0 7C0 3.13401 3.13401 0 7 0ZM7 1C3.68629 1 1 3.68629 1 7C1 10.3137 3.68629 13 7 13C10.3137 13 13 10.3137 13 7C13 3.68629 10.3137 1 7 1Z" fill="#64748B"/>
</svg>
