<svg width="16" height="20" viewBox="0 0 16 20" fill="none" xmlns="http://www.w3.org/2000/svg">
<path fill-rule="evenodd" clip-rule="evenodd" d="M3 0.835938C1.61929 0.835938 0.5 1.95523 0.5 3.33594V16.6693C0.5 18.05 1.61929 19.1693 3 19.1693H13C14.3807 19.1693 15.5 18.05 15.5 16.6693V7.5026C15.5 7.28159 15.4122 7.06963 15.2559 6.91335L9.42259 1.08002C9.26631 0.923735 9.05435 0.835938 8.83333 0.835938H3ZM2.16667 3.33594C2.16667 2.8757 2.53976 2.5026 3 2.5026H8V7.5026C8 7.96284 8.3731 8.33594 8.83333 8.33594H13.8333V16.6693C13.8333 17.1295 13.4602 17.5026 13 17.5026H3C2.53976 17.5026 2.16667 17.1295 2.16667 16.6693V3.33594ZM12.6548 6.66927L9.66667 3.68111V6.66927H12.6548Z" fill="#192839"/>
</svg>
