<svg width="152" height="152" viewBox="0 0 152 152" fill="none" xmlns="http://www.w3.org/2000/svg">
<g opacity="0.6">
<rect width="152" height="152" fill="#305EFF" fill-opacity="0.26"/>
<path fill-rule="evenodd" clip-rule="evenodd" d="M76 12.6641C59.9684 12.6641 46.9722 25.7784 46.9722 41.9557C46.9722 58.1331 59.9684 71.2474 76 71.2474C92.0316 71.2474 105.028 58.1331 105.028 41.9557C105.028 25.7784 92.0316 12.6641 76 12.6641ZM58.5833 41.9557C58.5833 32.2493 66.381 24.3807 76 24.3807C85.619 24.3807 93.4167 32.2493 93.4167 41.9557C93.4167 51.6621 85.619 59.5307 76 59.5307C66.381 59.5307 58.5833 51.6621 58.5833 41.9557Z" fill="#ECF1FF"/>
<path d="M52.7778 82.9641C36.7462 82.9641 23.75 96.0784 23.75 112.256V123.972C23.75 127.208 26.3492 129.831 29.5556 129.831C32.7619 129.831 35.3611 127.208 35.3611 123.972V112.256C35.3611 102.549 43.1588 94.6807 52.7778 94.6807H99.2222C108.841 94.6807 116.639 102.549 116.639 112.256V123.972C116.639 127.208 119.238 129.831 122.444 129.831C125.651 129.831 128.25 127.208 128.25 123.972V112.256C128.25 96.0784 115.254 82.9641 99.2222 82.9641H52.7778Z" fill="#ECF1FF"/>
<ellipse cx="76.0016" cy="41.1667" rx="22.1667" ry="22.1667" fill="#ECF1FF"/>
<path d="M23.75 107.914C23.75 94.6592 34.4952 83.9141 47.75 83.9141H104.25C117.505 83.9141 128.25 94.6592 128.25 107.914V151.997H23.75V107.914Z" fill="#ECF1FF"/>
</g>
</svg>
